<?xml version="1.0" standalone="no"?>
<!DOCTYPE svg PUBLIC "-//W3C//DTD SVG 1.1//EN" "http://www.w3.org/Graphics/SVG/1.1/DTD/svg11.dtd" >
<svg xmlns="http://www.w3.org/2000/svg">
<metadata>Generated by IcoMoon</metadata>
<defs>
<font id="icomoon" horiz-adv-x="1024">
<font-face units-per-em="1024" ascent="960" descent="-64" />
<missing-glyph horiz-adv-x="1024" />
<glyph unicode="&#x20;" horiz-adv-x="512" d="" />
<glyph unicode="&#xe900;" glyph-name="arrow-down" d="M853.856 682.336l-341.856-291.328-341.856 291.328-104.032-88.672 445.888-380 445.888 380z" />
<glyph unicode="&#xe901;" glyph-name="arrow-left" d="M769.344 131.424l-319.904 316.576 319.904 316.576-97.376 96.352-417.28-412.928 417.28-412.928z" />
<glyph unicode="&#xe902;" glyph-name="arrow-right" d="M254.656 764.576l319.904-316.576-319.904-316.576 97.376-96.352 417.28 412.928-417.28 412.928z" />
<glyph unicode="&#xe903;" glyph-name="arrow-up" d="M170.144 213.664l341.856 291.328 341.856-291.328 104.032 88.672-445.888 380-445.888-380z" />
<glyph unicode="&#xe904;" glyph-name="arrow-up-down" d="M272.256 384.288l-102.752-95.584 342.464-318.592 342.464 318.592-102.752 95.584-239.744-223.008-239.744 223.008zM751.744 511.712l102.752 95.584-342.464 318.592-342.464-318.592 102.752-95.584 239.744 223.008 239.744-223.008z" />
<glyph unicode="&#xe905;" glyph-name="bulb-off" d="M478.948 662.688c-11.072-1.952-21.952-4.352-27.84-6.080-9.376-2.752-23.872-7.744-27.136-9.408-0.864-0.416-3.264-1.536-5.184-2.368-56.16-24.896-104.448-78.592-123.328-137.376-8.544-26.464-10.048-34.624-12.544-68.416-0.704-9.92 0.96-38.752 2.752-46.784 0.512-2.56 1.28-6.816 1.792-9.632 0.864-6.080 2.752-13.92 4.448-18.784 0.704-1.952 2.208-6.592 3.392-10.432 1.088-3.744 2.496-7.616 2.976-8.64 0.512-0.928 1.888-4.256 3.072-7.328 2.304-5.696 7.264-16.544 8.96-19.296 0.512-0.832 2.976-5.184 5.568-9.632s8.64-13.408 13.408-19.808c8.64-11.584 10.048-13.312 20.992-25.184 6.656-7.328 15.52-19.104 22.176-29.632 4.768-7.424 15.52-28.224 16.704-32.096 0.32-1.024 1.472-4.448 2.656-7.52 5.376-14.24 11.936-39.264 11.936-45.568 0-3.424 5.568-14.528 9.632-19.008 5.056-5.696 12.224-9.536 20.672-11.168 9.152-1.856 145.408-2.048 155.552-0.32 17.216 3.008 29.536 16.448 32 34.912 1.792 13.216 7.68 34.304 13.312 47.712 10.656 24.992 24.064 45.76 43.264 67.008 11.072 12.192 27.040 33.472 30.144 40.096 0.416 0.832 1.6 2.976 2.624 4.544 1.984 3.008 11.072 21.696 13.408 27.392 0.704 1.728 2.112 4.768 2.976 6.912s1.6 4.448 1.6 5.28c0 0.832 0.608 2.912 1.376 4.768 2.88 7.104 4.864 15.2 9.152 37.376 2.4 12.48 2.4 58.688-0.096 72.192-3.072 17.344-6.24 30.56-9.056 37.28-0.832 1.856-1.376 3.936-1.376 4.768s-0.704 3.136-1.6 5.28c-0.864 2.144-2.304 5.28-2.976 6.912-2.4 5.696-11.424 24.384-13.408 27.392-0.96 1.728-2.208 3.744-2.624 4.544s-2.112 3.52-3.68 6.080c-17.216 26.464-41.376 51.040-67.52 68.8-2.624 1.856-4.96 3.232-5.28 3.232-0.192 0-2.304 1.216-4.544 2.656-5.376 3.424-19.712 10.752-26.688 13.632-2.976 1.216-6.56 2.656-7.936 3.232-9.92 4.032-29.856 9.536-39.776 10.944-3.584 0.512-8.544 1.44-10.944 1.952-6.752 1.632-53.504 1.216-63.136-0.512l0.128 0.096zM516.836 598.144c9.472-1.952 15.296-6.72 19.616-16.224 2.496-5.376 2.208-14.912-0.512-20.32-5.696-11.072-14.784-16.032-29.76-16.032-4.544 0-10.144-0.512-12.352-1.12-2.208-0.512-5.984-1.344-8.448-1.856-15.936-3.136-36.8-14.912-51.616-29.024-5.472-5.28-14.688-16.832-18.688-23.36-1.888-3.008-7.776-15.712-9.472-20.32-4.192-10.944-7.776-30.272-7.776-41.408 0-11.36-7.68-21.088-19.296-24.576-5.568-1.632-6.24-1.632-11.936-0.096-7.488 2.144-13.728 7.232-16.992 13.92-2.304 4.448-2.496 6.080-2.496 17.568 0 26.784 7.936 54.72 23.36 81.6 9.92 17.344 25.44 34.72 42.944 48.128 11.2 8.544 12.032 9.024 18.688 12.48 2.752 1.44 5.696 3.008 6.464 3.52 2.4 1.44 12.128 5.792 16.992 7.616 12.96 4.768 25.248 7.52 40.64 9.024 7.36 0.704 13.728 1.44 14.016 1.536 0.32 0 3.168-0.416 6.464-1.12l0.16 0.064zM428.26 81.632c-7.168-2.048-8.64-2.752-12.736-6.304-2.496-2.048-5.472-5.696-6.752-8.128-2.4-4.256-2.4-4.768-2.208-27.904l0.32-23.648 3.168-6.816c1.696-3.744 5.184-9.12 7.68-11.776 5.184-5.568 13.92-11.264 19.2-12.288 4.544-0.832 6.336-3.008 7.84-9.216 0.608-2.88 1.792-6.912 2.496-9.12 0.832-2.368 1.376-4.864 1.376-5.792 0-2.976 4.768-12.48 7.936-15.808 1.792-1.856 5.056-4.544 7.264-6.080l4.192-2.752h88.512l4.096 2.752c8.128 5.376 12.032 10.56 14.688 19.616 0.96 3.328 2.4 8.128 3.168 10.656s1.376 5.472 1.376 6.592c0 4.032 3.68 8.448 7.68 9.216 9.056 1.632 20.672 11.168 25.952 21.184 4.352 8.256 5.184 13.504 5.184 34.304 0 19.2-0.096 20.416-2.4 25.6-1.472 3.232-4.192 6.912-6.976 9.216-8.64 7.424-2.752 6.912-95.072 7.104-45.664 0.096-84.32-0.192-86.016-0.608h0.032z" />
<glyph unicode="&#xe906;" glyph-name="bulb-on" d="M619.872 55.168v-27.584c0-21.952-16.192-40.256-37.184-43.36l-6.816-25.088c-3.68-13.632-15.968-23.136-30.144-23.136h-67.584c-14.24 0-26.464 9.536-30.144 23.136l-6.592 25.088c-21.184 3.328-37.376 21.408-37.376 43.584v27.584c0 14.784 11.872 26.624 26.688 26.624h162.56c14.784-0.192 26.688-12.032 26.688-26.816l-0.096-0.032zM745.056 427.36c0-62.816-24.928-119.808-65.44-161.6-30.784-31.904-50.624-72.544-57.248-115.904-2.912-18.688-19.104-32.448-38.144-32.448h-144.64c-18.88 0-35.232 13.632-37.984 32.256-6.816 43.36-26.88 84.576-57.664 116.288-39.744 41.216-64.448 97.216-65.024 158.88-1.376 129.472 101.824 234.336 231.488 235.328 129.472 0.96 234.592-103.616 234.592-232.768l0.064-0.032zM538.272 568.352c0 14.4-11.68 26.272-26.272 26.272-92.672 0-168.256-75.264-168.256-168.032 0-14.4 11.68-26.272 26.272-26.272 14.4 0 26.272 11.68 26.272 26.272 0 63.808 51.968 115.52 115.648 115.52 14.592 0 26.272 11.68 26.272 26.272l0.064-0.032zM512 736.544c14.4 0 26.272 11.68 26.272 26.272v91.968c0 14.4-11.68 26.272-26.272 26.272s-26.272-11.68-26.272-26.272v-91.968c0-14.592 11.872-26.272 26.272-26.272zM202.592 427.552c0 14.4-11.68 26.272-26.272 26.272h-92.096c-14.4 0-26.272-11.68-26.272-26.272 0-14.4 11.68-26.272 26.272-26.272h92.096c14.592 0 26.272 11.68 26.272 26.272zM939.776 453.824h-92.096c-14.4 0-26.272-11.68-26.272-26.272 0-14.4 11.68-26.272 26.272-26.272h92.096c14.4 0 26.272 11.68 26.272 26.272 0 14.4-11.68 26.272-26.272 26.272zM256.16 208.992l-65.216-65.12c-10.336-10.304-10.336-26.816 0-37.12 5.056-5.056 11.872-7.584 18.496-7.584s13.408 2.496 18.496 7.584l65.216 65.12c10.336 10.304 10.336 26.816 0 37.12-10.144 10.304-26.88 10.304-37.024 0h0.032zM749.376 638.336c6.592 0 13.408 2.496 18.496 7.584l65.216 65.12c10.336 10.304 10.336 26.816 0 37.12s-26.88 10.304-37.184 0l-65.216-65.12c-10.336-10.304-10.336-26.816 0-37.12 5.28-5.056 11.872-7.584 18.688-7.584zM256.16 646.144c5.056-5.056 11.872-7.584 18.496-7.584s13.408 2.496 18.496 7.584c10.336 10.304 10.336 26.816 0 37.12l-65.216 65.12c-10.336 10.304-26.88 10.304-37.184 0s-10.336-26.816 0-37.12l65.408-65.12zM767.84 208.992c-10.336 10.304-26.88 10.304-37.184 0s-10.336-26.816 0-37.12l65.216-65.12c5.056-5.056 11.872-7.584 18.496-7.584s13.408 2.496 18.496 7.584c10.336 10.304 10.336 26.816 0 37.12l-65.024 65.12z" />
<glyph unicode="&#xe907;" glyph-name="cancel-circle" d="M512 960c-282.784 0-512-229.216-512-512s229.216-512 512-512 512 229.216 512 512-229.216 512-512 512zM512 32c-229.76 0-416 186.24-416 416s186.24 416 416 416 416-186.24 416-416-186.24-416-416-416zM672 704l-160-160-160 160-96-96 160-160-160-160 96-96 160 160 160-160 96 96-160 160 160 160z" />
<glyph unicode="&#xe908;" glyph-name="checkbox-checked" d="M896 960h-768c-70.4 0-128-57.6-128-128v-768c0-70.4 57.6-128 128-128h768c70.4 0 128 57.6 128 128v768c0 70.4-57.6 128-128 128zM448 165.504l-237.248 237.248 90.496 90.496 146.752-146.752 306.752 306.752 90.496-90.496-397.248-397.248z" />
<glyph unicode="&#xe909;" glyph-name="checkbox-unchecked" d="M896 960h-768c-70.4 0-128-57.6-128-128v-768c0-70.4 57.6-128 128-128h768c70.4 0 128 57.6 128 128v768c0 70.4-57.6 128-128 128zM896 64h-768v768h768v-768z" />
<glyph unicode="&#xe90a;" glyph-name="checkmark" d="M864 832l-480-480-224 224-160-160 384-384 640 640z" />
<glyph unicode="&#xe90b;" glyph-name="circle-down" d="M1024 448c0 282.784-229.216 512-512 512s-512-229.216-512-512 229.216-512 512-512 512 229.216 512 512zM96 448c0 229.76 186.24 416 416 416s416-186.24 416-416-186.24-416-416-416-416 186.24-416 416zM317.248 605.248l-90.528-90.528 285.248-285.248 285.248 285.248-90.496 90.496-194.752-194.752z" />
<glyph unicode="&#xe90c;" glyph-name="circle-left" d="M512-64c282.784 0 512 229.216 512 512s-229.216 512-512 512-512-229.216-512-512 229.216-512 512-512zM512 864c229.76 0 416-186.24 416-416s-186.24-416-416-416-416 186.24-416 416 186.24 416 416 416zM669.248 642.752l-90.528 90.528-285.248-285.248 285.248-285.248 90.496 90.496-194.752 194.752z" />
<glyph unicode="&#xe90d;" glyph-name="circle-right" d="M512 960c-282.784 0-512-229.216-512-512s229.216-512 512-512 512 229.216 512 512-229.216 512-512 512zM512 32c-229.76 0-416 186.24-416 416s186.24 416 416 416 416-186.24 416-416-186.24-416-416-416zM354.752 253.248l90.528-90.528 285.248 285.248-285.248 285.248-90.496-90.496 194.752-194.752z" />
<glyph unicode="&#xe90e;" glyph-name="circle-up" d="M0 448c0-282.784 229.216-512 512-512s512 229.216 512 512-229.216 512-512 512-512-229.216-512-512zM928 448c0-229.76-186.24-416-416-416s-416 186.24-416 416 186.24 416 416 416 416-186.24 416-416zM706.752 290.752l90.528 90.528-285.248 285.248-285.248-285.248 90.496-90.496 194.752 194.752z" />
<glyph unicode="&#xe90f;" glyph-name="close" d="M657.408 447.168l318.56 316.32c7.616 7.584 7.616 19.904 0 27.488l-117.696 116.896c-3.68 3.648-8.64 5.696-13.824 5.696s-10.176-2.048-13.824-5.696l-318.56-316.32-318.56 316.32c-7.328 7.264-20.32 7.264-27.712 0l-117.696-116.896c-7.616-7.584-7.616-19.904 0-27.488l318.56-316.32-318.56-316.256c-7.616-7.584-7.616-19.904 0-27.488l117.696-116.896c3.68-3.648 8.64-5.696 13.824-5.696s10.176 2.048 13.824 5.696l318.56 316.32 318.56-316.32c3.68-3.648 8.64-5.696 13.824-5.696s10.176 2.048 13.824 5.696l117.696 116.896c7.616 7.584 7.616 19.904 0 27.488l-318.56 316.256z" />
<glyph unicode="&#xe910;" glyph-name="collapse-vertical" d="M331.532 831.812c-0.256-0.416 4.192-6.208 10.048-12.736s14.4-16.288 19.040-21.696c4.672-5.312 8.96-10.144 9.408-10.688 0.512-0.512 8.128-9.216 16.992-19.36s19.968-22.72 24.64-28c4.672-5.312 13.504-15.296 19.712-22.368s16.032-18.336 21.92-25.024c17.984-20.576 33.472-38.24 43.328-49.504 5.184-5.952 9.664-10.944 9.92-11.2s2.048-2.24 3.936-4.448c1.888-2.304 3.936-4.16 4.544-4.16s2.144 1.28 3.328 2.88c1.216 1.472 5.728 6.816 10.048 11.776s10.144 11.776 12.96 15.040c12.96 15.040 32.32 37.728 36.8 43.072 2.656 3.168 9.12 10.688 14.336 16.704 5.184 5.952 11.008 12.864 12.96 15.168 1.952 2.4 4.192 5.056 5.12 6.048 0.832 0.928 7.616 8.864 15.104 17.664s15.808 18.432 18.528 21.568c7.072 8.192 7.424 8.608 11.36 13.376 1.952 2.304 7.776 9.216 12.96 15.168 5.184 6.048 11.616 13.504 14.336 16.8 2.656 3.168 6.464 7.488 8.352 9.472 1.888 2.048 3.232 4.16 2.88 4.672-0.704 1.216-361.728 1.216-362.496 0l-0.064-0.224zM130.156 556.068c-0.256-0.608-0.352-25.152-0.256-54.528l0.256-53.408h763.488v108.48l-381.6 0.256c-304.8 0.16-381.696 0-381.952-0.864l0.064 0.064zM510.092 313.38l-379.968-0.416-0.256-53.312c-0.096-38.656 0.096-53.664 0.832-54.432 0.864-1.024 61.344-1.216 380.256-1.216 208.544 0 380.064 0.256 381.248 0.512l1.952 0.512v108.192l-1.952 0.256c-1.184 0.16-172.992 0.16-382.048-0.096h-0.064zM508.556 139.652c-3.328-3.68-9.12-10.144-12.8-14.496-3.68-4.192-7.072-8.192-7.616-8.704-0.448-0.512-4.768-5.312-9.408-10.688-4.672-5.44-13.152-15.040-18.784-21.44-9.92-11.2-36.96-42.176-40.704-46.496-0.96-1.216-3.232-3.68-5.024-5.568-1.696-1.984-8.608-9.728-15.104-17.312-6.592-7.584-16.64-19.040-22.368-25.504-5.632-6.336-15.104-17.216-21.056-23.968-5.888-6.816-11.2-12.864-11.84-13.376-0.512-0.608-3.136-3.648-5.728-6.656-2.496-3.008-5.184-5.952-5.888-6.56-0.704-0.512-1.088-1.376-0.704-1.888 0.704-1.216 361.728-1.376 362.496-0.16 0.256 0.416-0.096 1.28-0.704 1.984-0.864 0.928-13.76 15.936-30.624 35.584-1.6 1.888-6.080 7.168-10.048 11.616-7.072 8.256-40.544 47.36-47.456 55.456-10.848 12.864-18.88 22.208-29.792 34.88-6.592 7.744-13.248 15.52-14.752 17.312-1.44 1.792-8.128 9.568-14.752 17.216-6.592 7.744-15.552 18.080-19.776 23.136-11.84 13.984-10.176 13.408-17.568 5.536v0.096z" />
<glyph unicode="&#xe911;" glyph-name="color-palette" d="M933.872 625.248c-28.32 67.264-67.648 120.16-117.952 158.72s-106.656 66.88-168.896 84.896-131.776 27.072-208.544 27.072c-57.856 0-112.288-13.92-163.264-41.824s-92.48-62.368-124.576-103.36-57.248-82.848-75.52-125.536-27.392-80.384-27.392-113.216c0-67.264 12.608-121.408 37.728-162.464s61.632-61.536 109.472-61.536c50.336 0 87.136-9.408 110.4-28.32s34.912-52.128 34.912-99.68c0-64 16.32-117.312 49.056-160s73.632-64 122.688-64c149.696 0 264.544 44.288 344.416 132.928s119.872 193.632 119.872 315.040c0 93.536-14.144 173.92-42.432 241.216l0.032 0.064zM250.672 439.456c-11.936-15.552-26.432-23.392-43.424-23.392s-31.424 7.776-43.424 23.392-17.92 34.464-17.92 56.64 5.984 41.024 17.92 56.64c11.936 15.552 26.432 23.392 43.424 23.392s31.424-7.776 43.424-23.392 17.92-34.464 17.92-56.64-5.984-41.024-17.92-56.64zM377.072 608.032c-16.992 0-31.136 7.776-42.432 23.392s-16.992 34.464-16.992 56.64 5.696 41.024 16.992 56.64 25.504 23.392 42.432 23.392 31.424-7.776 43.424-23.392 17.92-34.464 17.92-56.64-5.984-41.024-17.92-56.64-26.432-23.392-43.424-23.392zM563.952 92.416c-14.496-18.88-31.808-28.32-51.904-28.32s-37.44 9.408-51.904 28.32-21.696 41.408-21.696 67.68 7.232 48.8 21.696 67.68c14.496 18.88 31.808 28.32 51.904 28.32s37.44-9.408 51.904-28.32 21.696-41.408 21.696-67.68-7.232-48.8-21.696-67.68zM616.816 631.392c-11.936-15.552-26.432-23.392-43.424-23.392s-31.424 7.776-43.424 23.392-17.92 34.464-17.92 56.64 5.984 41.024 17.92 56.64 26.432 23.392 43.424 23.392 31.424-7.776 43.424-23.392 17.92-34.464 17.92-56.64-5.984-41.024-17.92-56.64zM811.216 503.456c-11.936-15.552-26.432-23.392-43.424-23.392s-31.424 7.776-43.424 23.392-17.92 34.464-17.92 56.64 5.984 41.024 17.92 56.64 26.432 23.392 43.424 23.392 31.424-7.776 43.424-23.392 17.92-34.464 17.92-56.64-5.984-41.024-17.92-56.64z" />
<glyph unicode="&#xe912;" glyph-name="cube" d="M48.816 126.615l-1.024 416.576c-0.064 20.48 21.248 34.368 40.384 26.304l385.376-162.112c10.656-4.448 17.568-14.752 17.6-26.176l1.024-416.576c0.064-20.48-21.248-34.368-40.384-26.304l-385.376 162.112c-10.656 4.448-17.568 14.752-17.6 26.176zM931.728 523.511l-355.648-151.552 0.928-385.472 355.648 151.552-0.928 385.472zM946.16 573.783c15.296 0.064 28.992-12.096 29.024-28.48l1.024-416.576c0.064-11.424-6.848-21.696-17.472-26.272l-384.576-163.904c-3.776-1.632-7.68-2.368-11.456-2.4-15.296-0.064-29.024 12.096-29.024 28.48l-1.024 416.576c-0.064 11.424 6.848 21.696 17.472 26.272l384.576 163.904c3.776 1.632 7.68 2.368 11.456 2.4v0zM509.168 808.375l-368.896-162.112 369.664-160.352 368.896 162.048-369.664 160.416zM509.072 852.535c4 0 8.032-0.832 11.776-2.4l405.44-175.872c22.976-9.984 23.104-42.080 0.096-52.128l-404.576-177.76c-3.744-1.632-7.744-2.464-11.776-2.464s-8.032 0.832-11.776 2.4l-405.44 175.872c-22.976 9.984-23.104 42.080-0.096 52.128l404.576 177.76c3.744 1.632 7.744 2.464 11.776 2.464v0z" />
<glyph unicode="&#xe913;" glyph-name="cylinder" d="M135.744 751.168c0-1.728 0-669.6 0-669.6 0-83.008 161.728-145.568 376.256-145.568s376.256 62.56 376.256 145.568v664.416h-0.32c0.16 1.728 0.32 3.424 0.32 5.184 0 83.008-161.728 145.568-376.256 145.568s-376.256-62.56-376.256-145.568zM844.896 751.168c0-51.136-136.768-108.192-332.896-108.192s-332.896 57.024-332.896 108.192 136.704 108.192 332.896 108.192 332.896-57.024 332.896-108.192zM512-26.592c-8.864 0-17.408 0.256-26.016 0.448v632.064c8.608-0.192 17.248-0.32 26.016-0.32 148.064 0 271.008 29.856 332.896 75.584v-599.616c0-51.136-136.768-108.192-332.96-108.192l0.064 0.032z" />
<glyph unicode="&#xe914;" glyph-name="dots-horizontal" d="M512.064 584.032c-58.72 0-106.4-60.928-106.4-136.032s47.68-136.032 106.4-136.032c58.72 0 106.304 60.928 106.304 136.032s-47.552 136.032-106.304 136.032zM173.76 584.032c-58.72 0-106.4-60.928-106.4-136.032s47.68-136.032 106.4-136.032c58.72 0 106.304 60.992 106.304 136.032s-47.552 136.032-106.304 136.032zM850.336 584.032c-58.72 0-106.4-60.928-106.4-136.032s47.68-136.032 106.4-136.032c58.72 0 106.304 60.928 106.304 136.032s-47.552 136.032-106.304 136.032z" />
<glyph unicode="&#xe915;" glyph-name="expand-vertical" d="M498.38 810.464c-8.608-9.28-20.416-22.080-26.304-28.416s-15.936-17.248-22.368-24.064c-21.92-23.712-29.696-32.064-32.064-34.496-1.216-1.28-12.448-13.408-24.896-26.88s-27.296-29.376-32.928-35.488c-5.728-6.080-11.968-12.864-13.984-14.944-1.952-2.208-6.080-6.656-9.12-9.824s-5.28-6.048-5.024-6.336c0.96-0.864 361.888-0.576 361.888 0.32 0 0.512-5.12 6.464-11.264 13.248s-13.504 14.944-16.384 18.080c-4.192 4.672-13.312 14.752-33.952 37.44-0.864 0.864-6.208 6.752-11.84 12.992s-13.408 14.912-17.248 19.136c-11.008 12.128-17.984 19.776-19.616 21.568-0.832 0.864-6.72 7.488-13.248 14.656-6.464 7.168-15.040 16.704-19.136 21.152-23.2 25.664-29.088 32.064-31.808 35.232-1.6 1.888-3.392 3.424-4.032 3.424s-8.128-7.584-16.736-16.736l0.064-0.064zM130.156 546.304c-0.256-0.576-0.352-23.744-0.256-51.52l0.256-50.432h763.488v102.56l-381.6 0.256c-304.8 0.16-381.696 0-381.952-0.832l0.064-0.032zM510.092 316.992l-379.968-0.416-0.256-50.368c-0.096-36.544 0.096-50.688 0.832-51.456 0.864-0.96 61.344-1.12 380.256-1.12 208.544 0 380.064 0.256 381.248 0.512l1.952 0.512v102.208l-1.952 0.256c-1.184 0.16-172.992 0.16-382.048-0.096l-0.064-0.032zM333.164 134.112c-1.888-0.672-1.344-2.112 1.792-5.12 1.6-1.536 8.352-8.704 14.944-15.872s12.288-13.216 12.544-13.408c0.256-0.256 4.544-4.704 9.408-10.080 4.928-5.28 13.76-14.912 19.712-21.248s15.936-17.248 22.368-24.064c6.336-6.912 14.592-15.776 18.336-19.712 3.68-4 8-8.544 9.408-10.24 2.656-3.008 11.936-12.96 34.464-37.12 6.72-7.168 16.896-18.112 22.624-24.416 5.824-6.24 11.84-12.608 13.408-14.080l2.752-2.752 3.68 3.584c1.952 1.952 5.536 5.792 7.872 8.448 2.4 2.624 5.728 6.24 7.328 8.032 5.12 5.632 23.904 26.368 30.88 34.208 9.12 10.24 42.336 46.784 43.424 47.936 2.048 2.112 25.344 27.904 28.928 32.064 2.144 2.496 6.208 7.008 8.96 9.92 2.88 3.008 12.192 13.248 20.8 22.784s18.272 20.032 21.312 23.36c3.488 3.68 5.536 6.464 5.184 7.168-0.448 1.088-22.848 1.216-179.712 1.12-98.656 0-179.808-0.256-180.384-0.512h-0.032z" />
<glyph unicode="&#xe916;" glyph-name="export" d="M115.17 875.872c-0.256-0.672-0.352-211.040-0.256-467.36l0.256-466.24 3.84-3.136 3.904-3.136h778.816l3.744 2.88 3.648 2.88-0.16 316.768-0.256 316.672-333.216 0.96-0.16 149.248c-0.16 82.080-0.256 149.824-0.256 150.464 0 0.864-46.528 1.12-229.696 1.12-182.944 0-229.888-0.32-230.144-1.12h-0.064zM392.706 455.072c2.912-2.56 3.168-5.888 3.648-45.888l0.448-40 4.096-4.352 133.472-0.448c125.024-0.448 133.728-0.576 135.84-2.112 4.192-2.912 6.752-6.56 8.192-11.584 1.344-4.352 1.44-13.472 1.216-85.856-0.256-80.96-0.256-80.992-2.208-85.408-1.216-2.912-3.264-5.472-5.952-7.36l-4-2.912h-132.032c-144.288 0-136.192 0.32-138.176-5.312-0.512-1.344-0.864-15.168-0.864-31.296 0-31.392-0.352-33.728-4.8-36.864-3.392-2.368-7.872-1.344-11.584 2.56-4.096 4.448-14.656 16.8-17.984 20.928-1.536 1.984-5.536 6.656-8.896 10.432-3.488 3.776-7.104 8.128-8.256 9.664-1.088 1.6-5.952 7.328-10.656 12.8-4.8 5.472-12.608 14.592-17.408 20.384-4.864 5.696-9.536 11.104-10.304 11.84-1.344 1.216-10.24 11.712-23.296 27.584-2.4 2.752-6.752 7.872-9.792 11.264-3.136 3.424-6.656 7.68-8.096 9.472s-6.208 7.584-10.752 12.8c-4.544 5.216-11.456 13.376-15.456 18.016-9.664 11.584-9.664 12.224 0.096 24.256 3.904 4.928 8 9.792 9.056 10.816 1.696 1.696 24.768 28.832 29.376 34.4 0.96 1.216 3.904 4.672 6.496 7.584 2.656 2.912 7.232 8.448 10.24 12.032 2.912 3.68 5.888 7.104 6.304 7.68 6.752 7.584 10.656 12.032 13.888 16.032 2.048 2.656 8.096 9.664 13.312 15.616s13.632 15.808 18.624 21.824c4.96 5.984 13.312 15.616 18.368 21.504 5.056 5.792 10.304 12.032 11.616 13.728 3.744 5.12 5.312 6.56 8 7.36s6.208 0.32 8.096-1.216l0.128 0.032zM630.594 874.656c-1.216-2.112-1.44-13.248-1.44-120.064 0-105.28 0.16-118.080 1.44-119.968 3.392-5.216-4.704-4.928 140.48-4.928 119.872 0 134.24 0.192 136.032 1.536 1.696 1.216 1.952 2.24 1.952 8.448v6.912l-4.192 3.776c-5.312 4.8-10.592 9.28-15.008 12.992-1.856 1.6-4.8 4.16-6.56 5.696-1.696 1.6-7.264 6.56-12.448 10.912-5.184 4.448-10.144 8.8-11.104 9.664-2.048 1.792-20.288 17.6-31.904 27.584-4.256 3.776-11.712 10.144-16.448 14.24s-11.104 9.664-14.24 12.352c-3.136 2.752-7.36 6.464-9.408 8.256s-9.408 8.256-16.448 14.24c-7.008 5.984-14.4 12.384-16.448 14.24s-6.496 5.696-9.792 8.544c-3.264 2.88-7.744 6.72-9.792 8.544-4.704 4.16-21.248 18.496-32.416 28.064-4.608 4-9.408 8.128-10.656 9.28-1.216 1.024-7.232 6.24-13.248 11.456s-13.248 11.36-15.936 13.728c-2.656 2.368-6.912 5.984-9.536 8.128-2.56 2.112-5.792 4.928-7.232 6.336-2.208 2.24-3.264 2.56-8.448 2.56-5.312 0-6.048-0.32-7.36-2.368l0.16-0.16z" />
<glyph unicode="&#xe917;" glyph-name="eye" d="M512 768c-223.328 0-416.896-130.048-512-320 95.104-189.952 288.672-320 512-320s416.864 130.048 512 320c-95.104 189.952-288.672 320-512 320zM764.448 598.304c60.16-38.368 111.136-89.76 149.44-150.304-38.304-60.512-89.28-111.936-149.44-150.304-75.584-48.224-162.88-73.696-252.448-73.696s-176.864 25.472-252.448 73.696c-60.16 38.368-111.136 89.76-149.44 150.304 38.304 60.512 89.28 111.936 149.44 150.304 3.904 2.496 7.872 4.928 11.872 7.296-9.952-27.328-15.424-56.832-15.424-87.584 0-141.376 114.624-256 256-256s256 114.624 256 256c0 30.784-5.44 60.256-15.424 87.584 3.968-2.368 7.936-4.8 11.872-7.296v0zM512 544c0-53.024-42.976-96-96-96s-96 42.976-96 96 42.976 96 96 96 96-42.976 96-96z" />
<glyph unicode="&#xe918;" glyph-name="eye-blocked" d="M945.952 945.952c-18.752 18.752-49.12 18.752-67.872 0l-202.176-202.176c-51.936 15.744-106.944 24.224-163.904 24.224-223.328 0-416.896-130.048-512-320 41.12-82.112 100.64-153.024 173.024-207.104l-158.976-158.976c-18.752-18.752-18.752-49.12 0-67.872 9.376-9.376 21.664-14.048 33.952-14.048s24.576 4.672 33.952 14.048l864 864c18.752 18.752 18.752 49.152 0 67.872zM416 640c42.24 0 78.080-27.296 90.912-65.184l-121.728-121.728c-37.888 12.832-65.184 48.672-65.184 90.912 0 53.024 42.976 96 96 96zM110.112 448c38.304 60.512 89.28 111.936 149.44 150.304 3.904 2.496 7.872 4.928 11.872 7.296-9.952-27.328-15.424-56.832-15.424-87.584 0-54.88 17.28-105.728 46.688-147.424l-60.928-60.928c-52.448 36.832-97.216 83.872-131.648 138.336zM768 517.984c0 27.168-4.256 53.344-12.096 77.888l-321.792-321.792c24.576-7.84 50.752-12.096 77.92-12.096 141.376 0 256 114.624 256 256zM830.016 670.016l-69.376-69.376c1.28-0.8 2.528-1.568 3.776-2.368 60.16-38.368 111.136-89.76 149.44-150.304-38.304-60.512-89.28-111.936-149.44-150.304-75.584-48.224-162.88-73.696-252.448-73.696-38.656 0-76.896 4.768-113.952 14.048l-76.896-76.896c59.712-21.472 123.936-33.152 190.848-33.152 223.296 0 416.864 130.048 512 320-45.024 89.92-112.128 166.4-193.984 222.016z" />
<glyph unicode="&#xe919;" glyph-name="folder" d="M140.096 561.472l-112.224-511.136h856.064l112.224 511.136zM883.904 613.472v86.208h-511.84l-84.384 145.92h-259.84v-576.064l75.456 343.904z" />
<glyph unicode="&#xe91a;" glyph-name="fragment" d="M514.312 709.361c-1.472-1.728-2.656-4-2.656-5.024s-2.464-4.672-5.472-7.84c-3.072-3.168-5.472-6.656-5.472-7.584s-1.6-3.424-3.68-5.696c-1.952-2.24-3.68-4.672-3.68-5.312 0-0.832-1.856-3.584-4.16-6.24-2.208-2.752-4.864-6.752-5.984-9.024-0.96-2.112-4.16-6.336-6.848-9.28-2.816-2.752-5.024-5.824-5.024-6.656s-3.072-4.672-6.72-8.608c-3.68-4-6.72-8.096-6.72-9.28s-2.656-5.024-6.080-8.608c-3.264-3.584-6.080-7.168-6.080-7.936 0-0.672-2.464-4.256-5.472-7.936-3.072-3.584-5.472-7.008-5.472-7.584s-2.464-4.928-5.472-9.824c-3.072-4.768-5.472-9.024-5.472-9.568s-1.952-3.328-4.416-6.24c-2.464-2.912-5.632-7.424-7.232-9.92-1.472-2.496-3.904-5.824-5.376-7.168-1.344-1.44-2.56-3.168-2.56-4.096 0-0.832-3.072-5.184-6.72-9.568-3.68-4.512-6.72-8.608-6.72-9.28s-1.696-2.912-3.776-5.184c-2.112-2.112-4.768-5.984-5.984-8.512s-4.512-7.008-7.232-9.92c-2.816-2.752-5.024-5.824-5.024-6.656 0-0.672-2.304-4-5.024-7.328-2.816-3.328-6.24-8.096-7.84-10.592-1.472-2.496-4.16-6.080-5.984-7.84-1.696-1.856-3.168-4.256-3.168-5.44s-2.56-4.768-5.632-7.936c-3.072-3.328-6.464-7.68-7.424-9.92-0.96-2.112-4.256-6.496-7.232-9.664s-5.376-6.496-5.376-7.584c0-0.928-0.704-2.656-1.6-3.584s-2.208-3.168-3.072-5.024c-0.704-1.856-3.264-5.824-5.376-8.768-2.208-3.072-7.072-9.92-10.848-15.264-3.776-5.44-8.64-11.52-10.752-13.664-2.112-2.24-3.776-4.672-3.776-5.568s-2.208-4.512-4.864-7.84c-2.656-3.328-4.864-6.656-4.864-7.168s-3.904-5.312-8.544-10.592c-4.672-5.44-8.544-10.496-8.544-11.264 0-0.928-2.464-4.256-5.472-7.424s-5.472-6.912-5.472-8.256c0-1.344-0.864-2.752-1.856-3.168-0.96-0.512-1.856-1.856-1.856-3.072 0-1.344-1.6-4.416-3.68-6.752-1.952-2.4-3.68-4.928-3.68-5.568 0-0.512-2.656-4.416-6.080-8.352-3.264-4-6.080-7.84-6.080-8.512s-3.072-4.928-6.72-9.568c-11.456-14.752-13.664-17.664-15.616-21.76-0.96-2.112-4.416-6.656-7.424-9.92-3.072-3.168-5.632-6.656-5.632-7.584s-1.952-3.84-4.416-6.656c-2.464-2.656-5.728-7.008-7.232-9.664-1.472-2.496-4.512-6.336-6.592-8.608-2.112-2.112-3.776-4.928-3.776-6.080 0-1.088-1.696-3.744-3.776-5.984-2.112-2.112-4.672-5.568-5.632-7.84-1.088-2.112-4.256-6.496-7.232-9.568-2.912-3.168-5.376-6.336-5.376-7.168 0-0.928-2.112-4.096-4.512-7.168-2.56-3.072-5.728-7.584-7.072-9.92-5.984-11.168-14.528-24.16-18.176-27.744-1.696-1.856-3.168-3.84-3.168-4.672s-2.816-4.928-6.080-9.152c-3.424-4.256-6.080-8.256-6.080-8.768 0-0.416-3.072-4.256-6.72-8.352s-6.72-8.352-6.72-9.408c0-0.928-1.216-2.912-2.56-4.416-1.472-1.344-4.032-4.928-5.728-7.84s-4.672-7.008-6.592-9.152c-1.856-2.24-3.424-4.672-3.424-5.44s-1.696-3.168-3.776-5.44c-2.112-2.112-4.768-5.984-5.984-8.608-1.216-2.496-3.168-5.44-4.16-6.336-1.088-0.928-4.16-5.312-6.976-9.664-3.52-5.696-4.672-8.352-3.68-9.408s1.696-1.088 2.816 0.16c0.864 0.928 3.264 1.6 5.472 1.6 2.304 0 6.464 1.184 9.28 2.752 5.024 2.656 11.968 4.512 22.208 6.080 2.656 0.416 5.984 1.6 7.328 2.496 1.344 1.088 4.416 1.856 6.72 1.856 2.464 0 5.472 0.928 6.848 1.984 1.472 1.184 5.12 1.856 9.792 1.984 5.12 0 7.936 0.672 9.024 1.984 0.96 1.344 3.776 1.984 8.032 1.984 3.52 0 6.848 0.672 7.232 1.344 0.352 0.832 2.816 1.344 5.28 1.344s6.080 0.928 8.032 1.984c1.856 1.088 5.28 1.984 7.584 1.984 2.208 0 4.416 0.672 4.768 1.344 0.352 0.832 3.168 1.344 5.984 1.344 2.912 0 7.328 0.928 9.632 1.984 2.464 1.088 6.080 1.984 8.032 1.984s4.032 0.512 4.416 1.344c0.352 0.672 2.816 1.344 5.376 1.344 2.464 0 5.632 0.928 6.976 1.984 1.216 1.088 4.672 1.984 7.328 1.984 2.912 0 5.728 0.832 6.592 1.984s3.68 1.984 6.592 1.984c2.656 0 6.080 0.928 7.328 1.984 1.344 1.088 3.424 1.984 4.672 1.984s3.168 0.512 4.416 1.184c1.088 0.832 4.672 1.728 7.84 2.112s6.080 1.344 6.464 2.112c0.512 0.672 2.912 1.184 5.472 1.184s5.12 0.672 5.472 1.344c0.352 0.672 2.816 1.344 5.28 1.344 2.464 0.16 5.824 0.928 7.584 1.984s5.12 1.856 7.584 1.984c2.464 0 4.864 0.672 5.28 1.344s2.816 1.344 5.376 1.344c2.464 0 5.632 0.928 6.976 1.984s5.024 1.984 8.544 1.984c4.032 0 6.848 0.672 7.84 1.984 0.864 1.184 3.68 1.984 6.592 1.984 2.656 0 6.080 0.928 7.328 1.984 1.344 1.088 4.512 1.984 6.976 1.984 2.56 0 5.024 0.672 5.376 1.344 0.352 0.832 2.464 1.344 4.416 1.344s5.632 0.928 8.032 1.984c2.304 1.088 6.72 1.984 9.632 1.984 2.816 0 5.632 0.672 5.984 1.344 0.352 0.832 2.56 1.344 4.768 1.344 2.304 0 5.728 0.928 7.584 1.984 1.952 1.088 6.080 1.984 9.28 1.984s6.080 0.672 6.464 1.344c0.352 0.832 3.168 1.344 5.984 1.344 3.264 0 5.824 0.832 6.848 1.984 0.96 1.344 3.776 1.984 7.84 1.984 3.52 0 7.232 0.928 8.544 1.984s4.768 1.984 7.584 1.984c3.264 0 5.376 0.672 5.728 1.856 0.512 1.184 3.264 2.112 7.84 2.496 9.408 0.928 19.776 3.168 21.504 4.768 0.864 0.672 4.256 1.44 7.584 1.856 10.24 1.184 18.176 3.072 20.992 4.672 1.472 0.928 4.512 1.44 6.592 1.344 2.304-0.16 4.16 0.416 4.512 1.344 0.256 0.832 1.952 1.6 3.776 1.6s4.416 0.928 5.728 1.984c1.216 1.088 3.68 1.984 5.376 1.984s4.16 0.928 5.376 1.984c1.344 1.088 4.416 1.984 6.848 1.984s5.024 0.672 5.824 1.6c1.344 1.44 5.024 2.24 21.504 4.928 3.904 0.672 7.68 1.856 8.448 2.656s3.424 1.44 5.824 1.44c2.56 0 5.024 0.672 5.376 1.344 0.352 0.832 3.52 1.344 6.848 1.344 3.424 0 7.68 0.928 9.632 1.984 1.952 1.184 5.376 1.856 7.584 1.728s4.032 0.416 4.416 1.344c0.256 0.928 2.912 1.6 6.848 1.6 3.68 0 7.328 0.832 8.8 1.984 1.216 1.088 4.672 1.984 7.328 1.984 2.912 0 5.728 0.832 6.592 1.984 0.96 1.344 3.776 1.984 7.84 1.984 3.52 0 7.232 0.928 8.544 1.984s4.512 1.984 6.976 1.984c2.56 0 5.024 0.672 5.376 1.344 0.352 0.832 3.68 1.344 7.232 1.344 4.032 0 7.072 0.672 7.936 1.856 0.704 0.928 4.256 2.24 7.84 2.656 14.176 2.112 16.128 2.496 18.528 4.256 1.344 0.928 4.256 1.6 6.464 1.6 2.208-0.16 4.672 0.512 5.376 1.344 0.864 0.928 4.672 1.6 8.544 1.6 5.28 0 7.328 0.512 7.84 1.984 0.512 1.344 2.464 1.984 5.824 1.984 2.656 0 6.080 0.928 7.328 1.984 1.344 1.088 3.904 1.984 5.728 1.984s3.52 0.832 3.904 1.856c0.352 1.088 3.168 2.112 6.592 2.656 14.656 1.856 17.472 2.496 18.784 4.256 0.704 1.088 3.264 1.856 5.728 1.856 4.416 0 9.888 1.6 17.088 4.928 2.208 1.088 4.672 1.6 5.472 1.344s3.264 0.256 5.632 1.184c2.208 1.088 6.848 1.856 10.144 1.856 4.16 0 6.080 0.512 6.592 1.984 0.512 1.344 2.464 1.984 5.824 1.984 2.656 0 6.080 0.928 7.328 1.984 1.344 1.088 4.768 1.984 7.584 1.984 3.264 0 5.376 0.672 5.728 1.856 0.352 1.088 3.168 2.112 6.592 2.656 3.168 0.416 10.144 1.184 15.264 1.856s10.24 1.856 11.2 2.752c0.96 0.928 4.032 1.44 6.72 1.344 2.816-0.256 5.632 0.256 6.464 1.184s4.256 1.6 7.68 1.6c3.424 0 6.848 0.672 7.424 1.344 0.704 0.832 3.904 1.6 7.072 1.856 3.072 0.16 6.336 1.088 7.072 1.856 0.864 0.928 2.912 1.6 4.768 1.6s3.904 0.928 4.768 1.984c0.864 1.088 3.264 1.984 5.472 1.984 2.464 0 4.256 0.832 4.768 1.984 0.512 1.44 2.56 1.984 7.424 1.984 9.408 0 8.64 3.744-2.208 11.168-1.856 1.184-10.24 9.28-18.528 17.76-20.992 21.504-30.88 30.784-32.352 30.784-0.864 0-7.232 6.080-14.176 13.664-7.072 7.424-13.664 13.664-14.528 13.92-0.96 0.256-5.024 4-8.896 8.352-4.032 4.256-7.936 7.84-8.8 7.84s-4.512 3.168-8.192 6.912c-3.68 3.84-7.584 7.584-8.896 8.352-1.216 0.672-5.728 4.768-10.048 8.896-4.16 4.096-13.216 12.864-19.904 19.36-6.72 6.656-14.656 14.752-17.728 18.176s-7.072 7.168-9.152 8.256c-4.416 2.4-13.408 11.264-40.128 39.264-11.008 11.424-20.736 20.832-21.696 20.832-0.864 0-5.28 3.84-9.536 8.608s-8.544 8.608-9.408 8.608c-0.864 0-4.768 3.584-8.64 7.936-4.032 4.416-7.936 7.936-8.896 7.936s-9.888 8.896-20.032 19.904c-10.048 10.848-19.136 19.904-20.128 19.904-1.088 0-5.12 3.584-9.152 7.936s-7.84 7.936-8.544 7.936c-0.704 0-4.864 3.84-9.152 8.608s-8.544 8.608-9.28 8.608c-1.952 0-14.272 11.68-32.832 30.912-8.192 8.512-15.776 15.52-16.736 15.52s-3.264 1.856-5.376 4.096c-1.952 2.24-5.472 5.568-7.84 7.168-2.304 1.728-10.144 9.28-17.216 16.992-7.232 7.68-14.528 14.848-16.48 15.936s-4.672 3.168-5.824 4.768c-3.072 3.584-5.728 3.584-9.024-0.256l-0.288-0.032z" />
<glyph unicode="&#xe91b;" glyph-name="gallery" d="M138.416 486.24c0-107.52 0.264-135.424 1.107-135.424 51.737-0.256 327.316 0.096 327.58 0.352 0.158 0.352 0.422 225.856 0.264 269.056 0 1.088-33.472 1.44-164.462 1.44h-164.462v-135.424h-0.026zM555.474 620.832c-0.923-1.216-0.685-268.608 0.158-269.312 0.58-0.448 255.259-1.088 328.844-0.704 0.764 0 1.002 27.904 1.002 135.424v135.424h-164.725c-90.612 0-165.042-0.352-165.305-0.832h0.026zM139.259 239.104c-0.58-0.352-0.844-46.592-0.844-135.776v-135.328h164.462c130.99 0 164.462 0.352 164.462 1.6 0.264 76.448-0.158 268.8-0.685 269.056-0.923 0.352-326.394 0.96-327.395 0.448zM556.502 238.624c-1.608-0.832-1.608-3.136-1.423-135.424l0.264-134.592 330.242-0.608v135.424c0 74.496-0.264 135.424-0.58 135.424-74.64 0.608-327.237 0.352-328.423-0.256l-0.079 0.032z" />
<glyph unicode="&#xe91c;" glyph-name="gear" d="M511.904 620.64c-92.256 0-167.104-77.376-167.104-172.736 0-95.296 74.848-172.736 167.104-172.736s166.592 77.472 166.592 172.736c0 95.392-74.304 172.736-166.592 172.736zM847.008 348.768l-30.112-74.944 60.832-123.392-74.496-76.96-122.208 59.648-72.544-30.784-36.8-116.48-4.704-15.456h-105.28l-45.568 131.488-72.544 30.912-119.616-62.56-74.496 76.896 57.664 126.304-29.888 74.912-127.488 43.008v108.736l127.328 47.168 29.888 74.816-53.568 109.248-7.072 14.336 74.4 76.864 122.368-59.552 72.448 30.912 36.8 116.384 4.768 15.424h105.28l45.632-131.648 72.352-30.912 119.744 62.72 74.432-76.864-57.664-126.208 29.792-75.008 127.68-42.912v-108.704l-127.328-47.36z" />
<glyph unicode="&#xe91d;" glyph-name="image" d="M959.872 832c0.032-0.032 0.096-0.064 0.128-0.128v-767.776c-0.032-0.032-0.064-0.096-0.128-0.128h-895.776c-0.032 0.032-0.096 0.064-0.128 0.128v767.776c0.032 0.032 0.064 0.096 0.128 0.128h895.776zM960 896h-896c-35.2 0-64-28.8-64-64v-768c0-35.2 28.8-64 64-64h896c35.2 0 64 28.8 64 64v768c0 35.2-28.8 64-64 64v0zM832 672c0-53.024-42.976-96-96-96s-96 42.976-96 96 42.976 96 96 96 96-42.976 96-96zM896 128h-768v128l224 384 256-320h64l224 192z" />
<glyph unicode="&#xe91e;" glyph-name="image-gallery" d="M967.104 789.344h-56.896v56.896c0 31.296-25.6 56.896-56.896 56.896h-796.448c-31.296 0-56.896-25.6-56.896-56.896v-682.656c0-31.296 25.6-56.896 56.896-56.896h56.896v-56.896c0-31.296 25.6-56.896 56.896-56.896h796.448c31.296 0 56.896 25.6 56.896 56.896v682.656c0 31.296-25.6 56.896-56.896 56.896zM113.792 732.448v-568.896h-56.768c-0.064 0.064-0.064 0.064-0.128 0.128v682.432c0.064 0.064 0.064 0.064 0.128 0.128h796.224c0.064-0.064 0.064-0.064 0.128-0.128v-56.768h-682.656c-31.296 0-56.896-25.6-56.896-56.896v0zM967.104 49.888c-0.064-0.064-0.064-0.064-0.128-0.128h-796.224c-0.064 0.064-0.064 0.064-0.128 0.128v682.432c0.064 0.064 0.064 0.064 0.128 0.128h796.224c0.064-0.064 0.064-0.064 0.128-0.128v-682.432zM853.344 590.208c0-47.104-38.24-85.344-85.344-85.344s-85.344 38.24-85.344 85.344 38.24 85.344 85.344 85.344 85.344-38.24 85.344-85.344zM910.208 106.656h-682.656v113.792l199.104 341.344 227.552-284.448h56.896l199.104 170.656z" />
<glyph unicode="&#xe91f;" glyph-name="import" d="M120.834 882.368c-0.256-0.672-0.352-212.48-0.256-470.592l0.256-469.44 3.776-3.168 3.84-3.168h767.68l3.68 2.88 3.584 2.88-0.16 318.976-0.256 318.88-328.448 0.96-0.16 150.272c-0.16 82.624-0.256 150.848-0.256 151.488 0 0.864-45.888 1.12-226.4 1.12-180.32 0-226.624-0.32-226.88-1.12v0.032zM530.626 454.944c2.464-2.752 10.080-11.712 16.736-19.872 6.752-8.096 13.056-15.68 14.016-16.704s2.88-3.424 4.288-5.216c1.376-1.792 6.496-8.032 11.36-13.824 5.024-5.728 13.216-15.68 18.496-21.952 5.184-6.304 13.056-15.776 17.504-20.992s9.824-11.616 11.84-14.336c2.112-2.56 6.208-7.52 9.216-10.944s8.256-9.632 11.584-13.824c3.424-4.192 7.872-9.632 9.984-12.128 12.192-14.144 18.016-21.312 19.104-23.456 1.216-2.464 0.864-9.536-0.512-10.592-0.448-0.32-3.584-4-7.008-8.192-3.328-4.192-7.872-9.632-9.984-12.032-5.536-6.4-8.896-10.4-19.104-22.784-5.024-5.984-12.704-15.264-17.152-20.544s-9.728-11.616-11.712-14.24c-1.984-2.56-4.192-5.184-4.704-5.824-5.28-5.952-10.592-12.224-13.76-16.224-3.776-4.768-15.68-19.104-20.576-24.736-1.376-1.632-6.496-7.616-11.328-13.472-4.8-5.728-12.352-14.784-16.736-20.032-4.448-5.28-9.216-10.848-10.432-12.608-3.168-4.096-8-7.264-10.080-6.496-0.96 0.32-2.88 1.888-4.416 3.52l-2.72 3.072v40.544c0 22.336-0.352 41.12-0.704 41.632-0.352 0.576-1.856 1.984-3.424 3.168l-2.72 2.112h-130.88c-122.464 0-130.976 0.096-132.96 1.632-3.424 2.56-7.008 7.168-7.744 9.824-0.352 1.344-0.608 40.864-0.608 87.872v85.6l3.584 4.544c6.56 8.512-4.704 7.936 141.984 7.936l128.928 0.096 2.24 2.4 2.208 2.464v63.648l2.56 2.976c1.952 2.304 3.328 2.976 5.792 2.976 2.72 0 3.936-0.768 7.776-4.96l0.064-0.032zM628.93 881.152c-1.216-2.112-1.376-13.376-1.376-120.896 0-105.984 0.16-118.88 1.376-120.768 3.328-5.28-4.672-4.96 138.496-4.96 118.176 0 132.352 0.192 134.080 1.536 1.632 1.216 1.952 2.304 1.952 8.512v6.976l-4.096 3.84c-5.28 4.864-10.432 9.376-14.784 13.056-1.856 1.632-4.704 4.192-6.496 5.728-1.696 1.632-7.168 6.592-12.224 10.944-5.056 4.512-9.984 8.864-10.944 9.728-1.984 1.792-19.968 17.76-31.424 27.744-4.192 3.84-11.584 10.176-16.192 14.336s-10.944 9.728-14.016 12.384c-3.072 2.752-7.264 6.496-9.28 8.288s-9.28 8.288-16.192 14.336c-6.912 5.984-14.176 12.48-16.192 14.336s-6.4 5.728-9.632 8.608c-3.232 2.88-7.616 6.752-9.632 8.608-4.672 4.192-20.928 18.592-31.936 28.256-4.544 4-9.28 8.192-10.496 9.376-1.216 1.088-7.104 6.304-13.056 11.52s-13.056 11.456-15.68 13.824c-2.624 2.4-6.816 5.984-9.376 8.192-2.56 2.112-5.696 4.96-7.104 6.4-2.208 2.304-3.232 2.56-8.352 2.56-5.28 0-5.952-0.32-7.264-2.4l-0.16-0.064z" />
<glyph unicode="&#xe920;" glyph-name="info" d="M448 656c0 26.4 21.6 48 48 48h32c26.4 0 48-21.6 48-48v-32c0-26.4-21.6-48-48-48h-32c-26.4 0-48 21.6-48 48v32zM640 192h-256v64h64v192h-64v64h192v-256h64zM512 960c-282.784 0-512-229.216-512-512s229.216-512 512-512 512 229.216 512 512-229.216 512-512 512zM512 32c-229.76 0-416 186.24-416 416s186.24 416 416 416 416-186.24 416-416-186.24-416-416-416z" />
<glyph unicode="&#xe921;" glyph-name="list" d="M0 960h256v-256h-256zM384 896h640v-128h-640zM0 576h256v-256h-256zM384 512h640v-128h-640zM0 192h256v-256h-256zM384 128h640v-128h-640z" />
<glyph unicode="&#xe922;" glyph-name="material-editor" d="M36.137 330.080v-394.080h474.592c260.928 0 475.168 0.48 475.968 0.96 1.12 0.832 1.344 80.384 1.12 393.856l-0.352 392.768-951.36 0.608v-394.080l0.032-0.032zM291.081 273.344v-283.040l-200.672-0.608v282.784c0 155.616 0.352 283.264 0.8 283.616 0.352 0.48 45.568 0.704 100.288 0.608l99.584-0.352v-283.008zM932.105 273.344v-283.040h-584.48l-0.352 281.824c-0.128 155.008 0 282.56 0.352 283.392 0.352 1.184 59.456 1.44 292.48 1.184l292.032-0.352v-283.040l-0.032 0.032zM586.729 361.504c-23.968-25.44-131.36-137.088-132.512-137.824-3.392-2.272-50.528-53.024-49.76-53.728 0.448-0.352 4.64-1.664 9.28-2.752 4.64-1.184 11.072-2.88 14.24-3.808s6.656-1.664 7.808-1.664c1.12 0 4.64-0.704 7.808-1.664 5.664-1.792 12.448-3.456 28.928-7.296 4.64-1.088 11.296-2.752 14.688-3.584 3.392-0.96 13.344-3.36 22.048-5.376s18.432-4.416 21.472-5.248c3.168-0.96 9.728-2.496 14.688-3.712 4.96-1.088 11.52-2.752 14.592-3.712 2.944-0.96 6.56-1.664 7.904-1.664 1.472 0 4.736-0.704 7.584-1.664 4.736-1.568 10.752-2.976 29.632-7.392 4.416-1.088 10.976-2.624 14.368-3.456 3.392-0.96 9.504-2.496 13.568-3.456s9.6-2.4 12.448-3.104c2.816-0.832 7.36-1.92 10.176-2.4 2.816-0.608 9.728-2.272 15.264-3.584 5.664-1.44 12.224-3.104 14.688-3.712 2.496-0.48 9.152-2.144 14.688-3.456 5.664-1.44 12-3.104 14.144-3.584s8.832-2.144 14.688-3.584c5.888-1.44 12.32-2.976 14.24-3.232l3.52-0.608 48.736 85.856c26.784 47.168 49.408 87.072 50.208 88.736s2.592 4.672 3.968 6.688c1.344 2.016 3.040 5.024 3.744 6.56 1.344 3.104 2.368 5.024 7.136 12.672 1.696 2.88 3.040 5.376 3.040 5.856 0 0.352 2.368 4.416 5.216 8.832 5.312 8.48 5.536 10.752 1.248 10.752-1.344 0-3.968 0.832-5.76 1.792-1.696 0.96-4.736 1.792-6.56 1.792-1.92 0-5.76 0.832-8.704 1.792-2.816 0.96-8.256 2.496-12 3.456s-9.28 2.4-12.448 3.104c-3.040 0.832-7.68 1.92-10.176 2.496-12.224 2.624-22.624 5.248-36.736 8.96-3.392 0.832-10.048 2.4-14.688 3.456s-11.296 2.624-14.688 3.456c-13.12 3.456-17.632 4.672-22.048 5.6-12.224 2.624-22.624 5.248-36.736 8.96-3.392 0.832-10.048 2.4-14.688 3.456s-11.296 2.624-14.688 3.584c-5.888 1.44-10.752 2.624-30.752 7.296-4.512 0.96-10.848 2.624-14.016 3.584-12.224 3.584-12.896 3.232-28.704-13.504l-0.096 0.032z" />
<glyph unicode="&#xe923;" glyph-name="maximize" d="M63.231 704.544c-0.448-0.352-0.768-57.792-0.768-127.392v-126.56l31.168 0.256 31.072 0.352 0.32 96.096c0.192 75.456 0.576 95.936 1.632 95.936 0.672 0 43.776 0.096 95.552 0.352l94.208 0.256v60.928l-126.304 0.352c-69.44 0.096-126.624-0.096-126.976-0.608l0.096 0.032zM706.911 704.032c-1.728-1.12-1.984-3.84-1.984-29.696 0-26.816 0.096-28.576 2.112-29.856 1.44-0.864 33.6-1.216 96.416-1.216 51.904 0 94.464-0.096 94.56-0.256 0.192-0.256 0.576-43.36 0.864-96.096l0.576-95.68h61.696l0.32 126.048c0.192 100.032 0 126.304-1.12 127.168-2.208 1.472-251.136 1.12-253.504-0.352l0.064-0.064zM204.831 575.872c-0.96-1.12-1.344-59.392-1.344-254.72 0-139.36 0.32-254.048 0.672-255.168 0.672-1.856 28.864-1.984 308.48-1.984s307.808 0.096 308.48 1.984c0.32 1.12 0.672 115.872 0.672 255.168 0 195.264-0.32 253.6-1.344 254.72-1.888 2.112-613.728 2.112-615.584 0h-0.032zM736.351 487.68c0.32-1.632 0.448-77.568 0.32-168.8l-0.32-165.952h-449.632l-0.32 167.072c-0.096 122.432 0.096 167.424 0.96 168.704 1.12 1.472 37.888 1.728 224.832 1.728h223.584l0.576-2.72v-0.032zM63.231 189.952c-0.448-0.352-0.768-57.792-0.768-127.392v-126.56h254.56l-0.192 30.816-0.32 30.72-190.656 1.216-0.192 94.464c-0.32 86.976-0.448 94.624-2.208 96.096-1.344 1.12-9.376 1.472-30.624 1.472-15.872 0-29.184-0.352-29.536-0.864l-0.064 0.032zM899.679 189.952c-0.448-0.352-0.768-43.104-0.768-94.816 0-71.488-0.32-94.368-1.344-95.488s-23.712-1.472-95.232-1.472c-84.416 0-94.112-0.256-95.648-1.984s-1.728-5.824-1.536-30.72l0.32-28.832h255.68l0.32 125.44c0.096 91.584-0.096 125.792-0.96 127.040-0.96 1.376-7.264 1.728-30.784 1.728-16.064 0-29.76-0.352-30.112-0.864l0.064-0.032z" />
<glyph unicode="&#xe924;" glyph-name="minimize" d="M76.498 704.768c-0.32-0.832-0.416-174.080-0.32-384.864l0.32-383.296 871.36-0.608v770.208h-435.392c-347.456 0-435.616-0.352-435.904-1.44h-0.064zM881.874 321.12v-316.096h-737.952l-0.32 314.944c-0.096 173.248 0 315.648 0.32 316.48 0.32 1.184 74.688 1.44 369.216 1.184l368.8-0.352v-316.096l-0.064-0.064zM193.298 592.384c-0.608-1.344-0.832-187.392-0.096-188.096 0.192-0.352 52.544-0.608 64.704-0.352 1.024 0 1.344 13.216 1.472 59.744l0.32 59.648 180.224 1.184v68.416l-123.040 0.352c-75.84 0.096-123.232-0.256-123.648-0.832l0.064-0.064zM579.858 591.904c-0.32-0.832-0.416-16.32-0.32-34.4l0.32-32.96 180.224-1.184 0.32-59.648c0.096-38.4 0.608-59.744 1.216-59.744s15.104 0 32.192 0c17.216 0 31.68 0 32.192 0 0.704 0 0.928 31.68 0.832 94.528l-0.32 94.4-123.136 0.352c-98.656 0.256-123.232 0-123.552-1.344h0.032zM192.786 240.736c0-0.608 0-42.24 0-92.352s0-91.648 0-92.352c0-0.832 41.984-1.184 123.84-1.184h123.84v68.416l-180.736 0.608-0.32 59.136-0.192 59.040h-33.216c-21.44 0-33.216-0.448-33.216-1.184v-0.128zM760.37 182.944l-0.32-59.136-180.736-0.608v-68.416h247.648v187.136h-66.464l-0.192-59.040 0.064 0.064z" />
<glyph unicode="&#xe925;" glyph-name="minus" d="M0 544v-192c0-17.664 14.336-32 32-32h960c17.664 0 32 14.336 32 32v192c0 17.664-14.336 32-32 32h-960c-17.664 0-32-14.336-32-32z" />
<glyph unicode="&#xe926;" glyph-name="new-file" d="M109.442 911.2c-0.256-0.672-0.352-218.976-0.256-484.96l0.256-483.776 3.904-3.232 3.936-3.232h790.112l3.776 2.976 3.68 2.976-0.192 328.704-0.256 328.608-338.016 0.96-0.192 154.88c-0.192 85.152-0.256 155.456-0.256 156.16 0 0.864-47.264 1.184-233.024 1.184-185.6 0-233.216-0.32-233.472-1.184v-0.064zM576.834 435.008c0.256-44.864 0.576-81.728 0.704-81.92 0.096-0.096 37.568-0.192 83.296-0.192 66.496 0.096 83.2-0.192 83.808-1.184 0.352-0.672 0.704-36.864 0.704-80.448 0-60.352-0.256-79.552-1.088-80.448s-20.736-1.184-84.288-1.184h-83.2l-0.192-91.136-0.256-91.232h-174.912l-0.256 91.136-0.192 91.232-167.232 0.512-0.256 80.544c-0.096 44.352 0.192 80.992 0.576 81.408 0.448 0.512 38.048 0.864 83.648 1.088l82.848 0.192 0.192 80.64c0.192 44.352 0.448 81.216 0.704 81.92 0.256 0.96 18.272 1.184 87.616 0.96l87.232-0.32 0.448-81.6 0.096 0.032zM632.354 909.92c-1.28-2.144-1.44-13.76-1.44-124.576 0-109.248 0.192-122.528 1.44-124.48 3.424-5.44-4.768-5.12 142.496-5.12 121.6 0 136.192 0.192 137.984 1.6 1.696 1.28 1.984 2.368 1.984 8.768v7.168l-4.256 3.936c-5.44 5.024-10.752 9.632-15.264 13.472-1.888 1.696-4.864 4.288-6.656 5.888-1.696 1.696-7.36 6.816-12.608 11.328-5.216 4.608-10.304 9.152-11.264 10.048-2.048 1.856-20.544 18.272-32.352 28.608-4.352 3.936-11.872 10.496-16.704 14.752s-11.264 10.048-14.432 12.8c-3.168 2.88-7.488 6.72-9.568 8.544s-9.568 8.544-16.704 14.752c-7.104 6.208-14.592 12.896-16.704 14.752s-6.592 5.888-9.92 8.864c-3.328 2.976-7.84 6.976-9.92 8.864-4.768 4.288-21.568 19.136-32.928 29.088-4.704 4.16-9.568 8.448-10.816 9.632-1.28 1.088-7.328 6.496-13.408 11.872s-13.408 11.776-16.128 14.24c-2.72 2.464-7.008 6.208-9.632 8.448-2.624 2.144-5.824 5.12-7.328 6.592-2.24 2.368-3.328 2.656-8.544 2.656-5.44 0-6.144-0.32-7.488-2.464l0.16-0.032z" />
<glyph unicode="&#xe927;" glyph-name="notification" d="M512 864c-111.104 0-215.584-43.264-294.144-121.856s-121.856-183.040-121.856-294.144c0-111.104 43.264-215.584 121.856-294.144s183.040-121.856 294.144-121.856c111.104 0 215.584 43.264 294.144 121.856s121.856 183.040 121.856 294.144c0 111.104-43.264 215.584-121.856 294.144s-183.040 121.856-294.144 121.856zM512 960v0c282.784 0 512-229.216 512-512s-229.216-512-512-512c-282.784 0-512 229.216-512 512s229.216 512 512 512zM448 256h128v-128h-128zM448 768h128v-384h-128z" />
<glyph unicode="&#xe928;" glyph-name="pencil" d="M768.768 886.528l-128.416-125.248 192.576-187.808 128.416 125.248-192.576 187.808zM62.656 197.824l0.704-188.352 191.84 0.576 513.536 500.896-192.576 187.808-513.536-500.896zM255.232 72.64h-128.416v125.248h64.192v-62.624h64.192v-62.624z" />
<glyph unicode="&#xe929;" glyph-name="plane" d="M529.923 665.609c-1.728-0.96-5.952-2.752-9.056-3.744-3.168-1.184-8.512-2.752-11.584-3.936-3.168-0.96-14.24-4.928-24.576-8.864-10.24-3.936-21.152-7.872-24.256-8.864-2.976-0.768-7.744-2.56-10.496-3.52-2.752-1.184-9.152-3.52-14.336-5.312s-12.352-4.544-15.968-5.952c-3.648-1.376-10.592-4.16-15.424-5.728-10.816-3.936-23.040-8.512-32.512-12.032-4-1.6-8.608-3.168-10.496-3.52-1.728-0.608-7.264-2.56-12.128-4.352-11.36-4.352-19.872-7.52-37.472-13.824-13.888-4.928-25.248-9.056-32.512-11.84-4-1.6-11.104-4.16-15.968-5.952s-12.032-4.352-15.968-5.952c-3.936-1.6-8.608-3.168-10.496-3.52-1.728-0.416-5.536-1.792-8.256-2.976s-8.896-3.52-13.76-5.312c-4.864-1.792-11.008-4.16-13.76-5.312s-7.36-2.752-10.496-3.52c-2.976-0.768-7.744-2.368-10.496-3.52s-8.896-3.52-13.76-5.312c-4.864-1.792-11.008-4.16-13.76-5.312s-6.4-2.56-8.256-2.976c-1.728-0.416-6.496-1.984-10.496-3.52s-11.104-4.16-15.968-5.952c-4.864-1.792-12.032-4.352-15.968-5.952-4-1.376-11.104-4.16-15.968-5.952s-11.936-4.544-15.68-6.144c-3.744-1.6-7.936-2.752-9.376-2.752-3.424 0-12.992-5.728-12.992-7.68 0-1.6 15.424-24.064 32.512-47.552 4.288-5.952 8.704-12.224 9.568-13.824 0.96-1.6 4.288-6.496 7.488-10.848s9.376-13.216 13.888-19.776c4.416-6.496 10.496-15.2 13.376-19.36 2.88-3.936 12.448-17.76 21.056-30.624 8.704-12.64 17.216-24.896 18.944-27.040 3.424-4.352 10.336-14.4 24.256-34.752 11.36-16.576 47.712-68.928 55.552-79.776 7.744-10.848 50.496-72.256 83.872-120.416 91.808-132.672 102.4-147.456 105.28-146.496 2.752 0.96 19.712 11.616 23.712 15.008 1.216 0.96 5.184 3.744 8.8 5.952 3.648 1.984 10.816 6.72 15.968 10.080 5.184 3.52 15.296 10.24 22.592 14.784s17.408 11.264 22.592 14.592c21.824 14.592 25.248 16.8 33.088 21.92 4.512 2.976 9.664 6.304 11.36 7.52 1.728 1.376 3.744 2.368 4.608 2.368s1.888 0.96 2.208 1.984c0.32 1.184 1.536 1.984 2.656 1.984 1.728 0 4.096 1.6 15.008 9.888 1.216 0.768 3.168 2.144 4.416 2.56 1.216 0.608 4.96 2.976 8.256 5.312 11.36 7.68 14.912 10.080 18.752 12.224 2.112 0.96 4.288 2.752 4.96 3.744 0.576 0.96 1.984 1.792 3.328 1.792 1.216 0 3.168 1.376 4.288 2.976 1.216 1.6 3.168 2.976 4.512 2.976 1.216 0 3.168 1.184 4.416 2.752 1.216 1.376 3.424 3.168 4.96 3.744s5.536 2.976 8.8 5.12c12.448 8.704 15.008 10.432 17.6 11.456 1.536 0.608 3.744 2.368 4.96 3.744 1.216 1.6 3.168 2.752 4.416 2.752s3.168 1.376 4.288 2.976c1.216 1.6 3.168 2.976 4.416 2.976 1.344 0 3.328 1.376 4.416 2.976 1.216 1.6 3.168 2.976 4.512 2.976s2.752 0.608 3.168 1.376c0.448 0.768 2.656 2.56 4.864 3.744 2.208 1.376 6.816 4.352 10.144 6.72 3.328 2.144 9.056 5.952 12.704 8.096 3.648 2.368 8.128 5.312 9.92 6.72 1.888 1.376 5.824 3.936 8.8 5.952 3.072 1.792 6.496 4.16 7.744 4.928s4.768 3.168 7.744 4.928c5.184 3.168 18.432 11.84 26.976 17.76 2.112 1.6 10.336 6.912 18.176 11.84 7.936 5.12 15.296 10.080 16.544 11.072s5.184 3.52 8.8 5.536c3.648 2.144 9.376 5.728 12.704 8.096 9.824 6.72 13.376 9.056 20.928 13.632 4 2.56 8.704 5.728 10.496 7.104 1.888 1.376 6.048 4.16 9.376 6.144s6.496 4.352 7.168 5.12c0.576 0.768 1.632 1.6 2.304 1.6 0.768 0 2.752 0.96 4.512 2.368 3.52 2.56 15.68 10.432 27.904 18.176 4.512 2.752 9.152 6.144 10.144 7.104 1.12 1.184 2.88 1.984 3.84 1.984 1.12 0 2.976 1.376 4.096 2.976 1.216 1.6 3.072 2.976 4.288 2.976 1.12 0 3.424 1.184 4.96 2.752 1.632 1.6 4.288 3.392 5.952 3.936 3.936 1.6 6.304 8.704 3.424 10.24-1.888 1.184-12.896 10.24-31.744 26.464-4.864 4.16-12.8 10.656-17.6 14.784-4.864 3.936-9.568 7.872-10.496 9.056-0.864 0.96-2.656 2.56-3.84 3.52-3.168 2.56-20.928 17.344-29.248 24.48-4 3.392-13.568 11.616-21.504 18.368-7.84 6.72-21.152 17.984-29.44 25.248-8.384 7.104-15.424 12.992-15.776 12.992-0.192 0-10.336 8.512-22.272 18.944-33.184 28.608-39.776 34.144-68.16 58.016-13.12 11.072-27.808 23.488-47.424 40.448-20.832 17.984-32.096 27.456-44.096 37.536s-42.912 36.512-70.56 60.224c-23.488 20.32-25.92 21.504-33.088 17.568l0.128-0.096z" />
<glyph unicode="&#xe92a;" glyph-name="plus" d="M992 576h-352v352c0 17.664-14.336 32-32 32h-192c-17.664 0-32-14.336-32-32v-352h-352c-17.664 0-32-14.336-32-32v-192c0-17.664 14.336-32 32-32h352v-352c0-17.664 14.336-32 32-32h192c17.664 0 32 14.336 32 32v352h352c17.664 0 32 14.336 32 32v192c0 17.664-14.336 32-32 32z" />
<glyph unicode="&#xe92b;" glyph-name="question" d="M448 256h128v-128h-128zM704 704c35.36 0 64-28.64 64-64v-192l-192-128h-128v64l192 128v64h-320v128h384zM512 864c-111.104 0-215.584-43.264-294.144-121.856s-121.856-183.040-121.856-294.144c0-111.104 43.264-215.584 121.856-294.144s183.040-121.856 294.144-121.856c111.104 0 215.584 43.264 294.144 121.856s121.856 183.040 121.856 294.144c0 111.104-43.264 215.584-121.856 294.144s-183.040 121.856-294.144 121.856zM512 960v0c282.784 0 512-229.216 512-512s-229.216-512-512-512c-282.784 0-512 229.216-512 512s229.216 512 512 512z" />
<glyph unicode="&#xe92c;" glyph-name="radio-checked" d="M512 960c-282.752 0-512-229.248-512-512s229.248-512 512-512 512 229.248 512 512-229.248 512-512 512zM512 64c-212.096 0-384 171.904-384 384s171.904 384 384 384c212.096 0 384-171.904 384-384s-171.904-384-384-384zM320 448c0 106.048 85.952 192 192 192s192-85.952 192-192c0-106.048-85.952-192-192-192s-192 85.952-192 192z" />
<glyph unicode="&#xe92d;" glyph-name="radio-unchecked" d="M512 960c-282.752 0-512-229.248-512-512s229.248-512 512-512 512 229.248 512 512-229.248 512-512 512zM512 64c-212.096 0-384 171.904-384 384s171.904 384 384 384c212.096 0 384-171.904 384-384s-171.904-384-384-384z" />
<glyph unicode="&#xe92e;" glyph-name="refresh" d="M889.664 793.664c-93.632 102.208-228.16 166.336-377.664 166.336-282.752 0-512-229.248-512-512h96c0 229.76 186.24 416 416 416 123.008 0 233.536-53.44 309.696-138.304l-149.696-149.696h352v352l-134.336-134.336zM928 448c0-229.76-186.24-416-416-416-123.008 0-233.536 53.44-309.696 138.304l149.696 149.696h-352v-352l134.336 134.336c93.632-102.208 228.16-166.336 377.664-166.336 282.752 0 512 229.248 512 512h-96z" />
<glyph unicode="&#xe92f;" glyph-name="save" d="M957.6 651.36c-8.128 19.872-17.856 35.584-29.248 47.2l-170.656 173.888c-11.36 11.584-26.816 21.504-46.272 29.792s-37.376 12.384-53.6 12.384h-565.504c-16.224 0-30.048-5.792-41.408-17.408s-17.056-25.664-17.056-42.24v-834.56c0-16.576 5.696-30.624 17.056-42.24s25.184-17.344 41.408-17.344h819.008c16.288 0 30.048 5.792 41.408 17.344s17.056 25.664 17.056 42.24v576.256c0 16.576-4.032 34.752-12.192 54.624zM423.776 815.296c0 5.376 1.952 10.048 5.792 13.984s8.448 5.888 13.728 5.888h116.992c5.28 0 9.824-1.952 13.728-5.888s5.792-8.608 5.792-13.984v-198.72c0-5.376-1.952-10.048-5.792-13.984s-8.448-5.888-13.728-5.888h-116.992c-5.28 0-9.824 1.952-13.728 5.888s-5.792 8.608-5.792 13.984v198.72zM735.808 40.352h-468.032v238.432h468.032v-238.432zM891.808 40.352h-78.016v258.304c0 16.576-5.696 30.624-17.056 42.24s-25.184 17.408-41.408 17.408h-507.040c-16.224 0-30.048-5.792-41.408-17.408s-17.056-25.664-17.056-42.24v-258.304h-77.984v794.816h77.984v-258.304c0-16.544 5.696-30.624 17.056-42.24s25.184-17.408 41.408-17.408h351.040c16.224 0 30.048 5.792 41.408 17.408s17.056 25.664 17.056 42.24v258.304c6.080 0 14.016-2.048 23.744-6.208s16.64-8.288 20.736-12.384l171.264-174.496c4.032-4.16 8.128-11.264 12.192-21.408s6.080-18.112 6.080-23.904v-556.384z" />
<glyph unicode="&#xe930;" glyph-name="search" d="M962.496 112.704l-238.176 243.392c33.984 56.736 54.624 122.784 54.624 194.24 0 207.168-164.448 375.136-367.104 375.136s-367.104-168-367.104-375.136c0-207.168 164.416-375.136 367.104-375.136 69.952 0 134.592 21.088 190.112 55.712l238.176-243.264c16.704-17.056 44.48-16.96 61.184 0l61.184 62.528c16.704 17.056 16.704 45.472 0 62.528zM411.904 300.224c-135.168 0-244.736 111.968-244.736 250.048s109.568 250.048 244.736 250.048 244.736-111.968 244.736-250.048-109.568-250.048-244.736-250.048z" />
<glyph unicode="&#xe931;" glyph-name="settings" d="M105.824-29.856h132v238.944h-132v-238.944zM237.76 925.856h-132v-398.24h132v398.24zM567.744 925.856h-132v-159.296h132v159.296zM39.84 288.704h264v159.296h-264v-159.296zM435.776-29.856h132v477.856h-132v-477.856zM369.76 527.68h264v159.296h-264v-159.296zM897.696 925.856h-132v-477.856h132v477.856zM699.744 368.32v-159.296h264v159.296h-264zM765.76-29.856h132v159.296h-132v-159.296z" />
<glyph unicode="&#xe932;" glyph-name="shader-editor" d="M36.137 340.32v-404.32h474.592c260.928 0 475.168 0.48 475.968 0.992 1.12 0.864 1.344 82.464 1.12 404.096l-0.352 402.976-951.36 0.608v-404.32l0.032-0.032zM494.569 407.104v-165.408h-403.616l-0.352 164.192c-0.128 90.304 0 164.928 0.352 165.792 0.352 1.216 41.376 1.472 202.016 1.216l201.568-0.352v-165.408l0.032-0.032zM932.105 282.112v-290.4h-380.992l-0.352 289.152c-0.128 159.040 0 289.888 0.352 290.752 0.352 1.216 39.104 1.472 190.72 1.216l190.272-0.352v-290.368zM494.569 67.104v-75.36l-404.16-0.608v75.104c0 41.408 0.352 75.584 0.8 75.968 0.352 0.48 91.36 0.736 202.016 0.608l201.344-0.384v-75.328zM715.593 487.84c-9.056-0.864-20.928-2.688-26.56-4.16-5.536-1.344-11.424-2.816-12.992-3.2s-4.416-1.472-6.432-2.464c-1.92-0.992-4.064-1.728-4.864-1.728-1.12 0-7.68-3.424-20.352-10.528-3.040-1.728-9.824-9.056-12.896-13.984-1.696-2.688-1.824-17.536-1.824-179.616v-176.544l3.264-4.768c1.824-2.56 4.64-6.24 6.432-8.096 4.96-4.896 24.64-15.2 33.792-17.632 1.248-0.384 4.864-1.344 7.904-2.336 12.32-3.808 23.52-5.504 44.32-6.848 32.224-2.336 71.328 0.864 90.208 7.36 1.92 0.608 7.136 2.336 11.648 3.808 4.512 1.6 8.48 3.296 8.832 3.808 0.352 0.608 1.248 1.088 2.144 1.088 2.368 0 14.688 8.32 19.904 13.344 8.128 7.84 7.68-1.6 7.808 187.968 0 121.536-0.352 170.432-1.248 174.368-0.896 3.552-2.944 7.232-5.984 10.656-4.64 5.152-17.632 14.336-20.352 14.336-0.8 0-2.368 0.864-3.616 1.824-1.12 0.992-3.040 1.824-4.064 1.824-1.12 0-3.616 0.736-5.664 1.728-3.52 1.6-9.728 3.424-22.944 6.848-8.256 2.080-42.048 4.896-57.088 4.672-7.136 0-20.352-0.864-29.408-1.728h0.032zM820.169 397.664c0.896-7.488 0.224-254.24-0.8-255.328-0.448-0.48-4.864 0-9.6 1.088-23.072 5.28-32.096 6.112-63.648 6.368l-31.104 0.128v244.8l31.648 0.128c27.232 0.128 33.792 0.48 47.488 2.944 8.576 1.6 16.736 3.296 18.080 3.808 5.44 2.464 7.136 1.6 7.904-3.936h0.032z" />
<glyph unicode="&#xe933;" glyph-name="sphere" d="M481.95 888.912c-3.744-0.864-14.4-5.792-19.808-9.152-1.12-0.672-4.416-2.72-7.328-4.512-18.176-11.36-40.384-33.696-57.28-57.408-13.984-19.776-22.72-34.752-33.696-57.504-1.472-2.976-3.52-7.232-4.608-9.408-2.304-4.704-15.456-36.512-16.576-40.352-0.512-1.536-2.4-6.912-4.192-12.032-4.192-11.456-9.376-28.32-12.448-39.872-1.344-4.8-3.008-10.688-3.744-13.12-0.832-2.4-2.912-11.072-4.8-19.136-1.792-8.096-3.936-17.152-4.704-20.224-0.704-2.976-2.816-13.568-4.608-23.488-1.696-9.92-3.648-20.992-4.416-24.576-1.216-7.104-1.344-7.328-5.312-41.536-4.416-38.336-5.952-57.792-6.56-86.592l-0.704-27.552 2.496-0.96c1.344-0.672 7.008-1.856 12.448-2.88s13.664-2.496 18.272-3.392c29.44-5.376 80.736-10.912 112.704-12.128 53.76-1.952 109.472 0.096 156.512 5.696 24 2.88 34.656 4.512 62.912 9.824 20.544 3.84 48.064 10.4 68.032 16.288 16.064 4.704 20.896 6.656 21.504 8.384 0.608 2.304-1.984 46.144-4.416 70.816-3.328 36.608-8.544 71.36-15.776 106.592-2.208 10.912-8.64 38.816-9.568 42.080-0.512 1.536-1.792 5.888-2.72 9.824-3.744 14.24-16.064 52.128-21.408 65.6-8.64 22.080-25.152 57.952-28.576 62.304-0.704 0.864-1.696 2.496-2.112 3.744-0.704 2.4-19.616 32.352-21.696 34.656-0.704 0.864-2.816 3.488-4.512 5.888-15.36 21.664-41.408 45.376-62.112 56.416-13.888 7.424-13.888 7.424-52.16 8-19.2 0.32-36.8 0.096-39.104-0.32l0.064 0.032zM408.286 878.576c-0.192-0.32-3.936-1.536-8.256-2.88-4.288-1.184-10.432-3.072-13.568-3.936-3.136-0.96-7.424-2.208-9.376-2.624-3.744-0.96-11.36-3.584-15.168-5.376-1.12-0.576-3.008-1.344-4.192-1.632-3.424-0.864-11.168-3.936-15.68-5.984-2.304-1.088-6.752-3.168-9.92-4.512s-9.92-4.608-15.168-7.104c-5.12-2.624-10.144-5.024-10.944-5.376-0.832-0.448-2.912-1.632-4.704-2.72-3.936-2.72-11.36-6.656-12.448-6.656-0.416 0-2.304-1.184-4.032-2.624-1.888-1.44-5.728-4.032-8.64-5.792-5.024-2.88-7.616-4.608-22.944-15.296-3.232-2.304-6.56-4.608-7.52-5.216-0.928-0.576-3.424-2.624-5.632-4.608-2.112-1.856-4.928-4.032-6.24-4.8-1.216-0.768-3.52-2.4-5.024-3.84-3.52-3.264-13.664-12.352-18.176-16.192-13.056-11.168-49.344-51.52-59.392-65.888-1.216-1.856-4.192-5.984-6.56-9.152-4.608-6.464-18.176-27.072-18.176-27.744 0-0.192-1.344-2.496-3.008-5.12s-4.8-8.096-6.912-12.352c-2.208-4.16-5.024-9.408-6.144-11.456-6.144-10.688-17.6-37.28-24.64-56.832-1.888-5.12-3.936-11.072-4.704-13.12s-2.912-8.96-4.704-15.296c-1.792-6.336-3.744-13.216-4.416-15.296-1.344-4.256-3.648-15.296-5.024-23.488-0.416-2.976-1.344-6.912-1.984-8.544-1.472-4.032-0.416-5.696 8.352-12.608 21.088-16.736 48.224-33.344 74.496-45.472 3.424-1.632 7.616-3.584 9.152-4.512 6.048-3.264 6.336-2.88 8.352 11.84 1.024 7.328 1.792 15.52 1.792 18.112s0.512 7.776 1.024 11.456c1.216 7.616 3.936 26.88 5.12 35.648 0.512 3.264 1.344 8.192 1.984 10.912s2.72 11.84 4.512 20.224c1.792 8.384 3.84 17.504 4.704 20.224 0.704 2.72 2.912 10.048 4.704 16.384s3.648 12.704 4.288 14.24c0.608 1.536 1.472 4.256 1.888 5.984 0.512 1.856 1.888 5.984 3.136 9.28s2.496 7.008 2.816 8.192c0.32 1.184 1.12 3.744 1.888 5.472 0.704 1.856 3.648 8.96 6.336 15.872 6.656 16.832 20.32 44.8 29.76 61.248 4.288 7.328 8.256 14.080 8.768 15.104 5.824 10.4 26.72 39.488 36.8 51.616 11.456 13.664 36.608 39.232 46.336 47.2 4.704 3.84 9.92 8.192 11.68 9.728 13.984 12.448 56.128 36.8 73.984 42.944 3.52 1.184 1.696 2.88-3.232 2.88-2.816 0-5.312-0.192-5.536-0.448l0.192-0.064zM630.654 871.76c0-0.576 3.84-2.976 8.64-5.376 22.944-11.584 44.864-26.368 66.56-44.8 11.776-9.92 34.464-33.536 45.728-47.552 37.024-46.144 63.136-93.696 84.224-153.248 0.832-2.304 2.112-5.984 2.912-8.192 0.832-2.304 2.912-9.28 4.8-15.616s3.744-12.608 4.192-13.888c0.512-1.344 2.624-9.632 4.704-18.592 2.112-8.864 4.416-18.88 5.216-22.176 0.704-3.264 2.4-12.128 3.648-19.648 1.12-7.52 2.624-16.064 3.136-18.88 0.608-2.976 1.024-7.328 1.024-9.824 0-5.216 1.696-12.448 3.136-13.312 1.792-1.088 20.8 13.12 34.464 25.6 16.064 14.848 27.232 27.744 36.416 42.080 6.912 10.912 6.912 10.912-3.648 36.512-0.832 1.952-1.472 4.256-1.472 5.12 0 0.768-0.704 2.88-1.6 4.608-0.832 1.632-2.496 5.568-3.744 8.544-3.744 9.28-7.328 17.344-8.256 19.136-0.512 0.864-1.984 3.84-3.232 6.56-5.536 12.128-11.168 22.848-13.056 25.248-0.832 0.864-1.472 2.112-1.472 2.496s-1.344 2.976-3.136 5.568c-1.696 2.624-3.136 5.024-3.136 5.216 0 0.96-13.664 21.952-21.088 32.352-7.616 10.592-8.544 11.936-16.48 20.896-2.304 2.72-5.632 6.912-7.328 9.28-7.104 9.824-38.080 40.768-56.48 56.064-3.136 2.496-8.256 6.912-11.456 9.536-3.232 2.72-6.144 4.928-6.464 4.928-0.416 0-3.424 2.208-6.912 4.928-3.328 2.72-6.464 4.928-6.656 4.928-0.32 0-3.52 2.112-7.232 4.704-9.472 6.56-10.56 7.232-12.288 8.096-0.832 0.448-3.424 1.952-5.728 3.488-8.64 5.696-32.96 18.496-46.944 24.672-1.696 0.768-6.24 2.88-10.144 4.8-3.84 1.856-7.744 3.392-8.544 3.392-1.344 0-4.8 1.344-12.64 4.8-1.696 0.768-5.952 2.304-9.376 3.264-3.424 1.088-7.616 2.4-9.376 3.072-4.416 1.632-10.944 2.4-10.944 1.344l0.032-0.128zM949.118 532.816c-0.512-1.088-2.304-5.888-3.84-10.688-3.232-10.176-6.56-18.016-15.168-35.744-12.192-25.248-28.064-49.216-47.68-72.032-9.376-10.912-10.24-12.032-10.848-14.432-0.32-1.344-0.704-9.056-0.832-17.248s-0.608-18.016-1.12-21.856c-0.512-3.84-1.024-10.4-1.024-14.656 0-4.16-0.704-11.072-1.6-15.296-0.832-4.16-1.6-9.536-1.6-11.68s-0.416-6.336-1.024-9.28c-0.512-2.88-1.984-11.36-3.136-18.88-1.216-7.52-2.912-16.384-3.648-19.648-0.832-3.264-3.136-13.312-5.216-22.176-2.112-8.96-4.192-17.248-4.704-18.592-0.416-1.344-2.304-7.52-4.192-13.888s-3.936-13.216-4.704-15.296c-6.336-18.016-8.448-23.616-11.68-31.68-8.864-22.432-23.616-52.992-30.656-64.256-1.696-2.624-3.008-4.928-3.008-5.216s-3.936-6.912-8.768-14.432c-27.232-43.168-56.32-75.968-93.888-106.24-4.8-3.84-5.824-5.472-3.52-5.472s41.408 20.224 53.184 27.456c15.168 9.408 24.928 15.968 32.352 21.856 4.416 3.584 8.352 6.464 8.768 6.464 0.32 0 2.4 1.536 4.512 3.264 4.032 3.584 15.36 13.312 23.040 19.776 7.104 5.984 40.384 41.216 46.944 49.6 3.136 4.032 7.232 8.96 8.864 10.912 4.704 5.472 12.288 15.712 16.288 21.856 1.888 3.072 3.648 5.696 3.936 5.984 1.216 1.184 13.056 20.032 14.272 22.944 0.416 0.864 1.6 2.88 2.624 4.352 0.928 1.536 3.328 5.792 5.216 9.28 1.888 3.584 4.288 8.096 5.312 9.824 1.024 1.856 2.304 4.256 2.816 5.472s4.032 8.96 7.84 17.248c3.744 8.288 6.912 15.424 6.912 15.712 0 0.448 0.832 2.72 1.984 5.12 1.024 2.496 2.72 6.656 3.744 9.408 0.928 2.72 2.4 6.464 3.136 8.192 0.704 1.856 1.696 4.928 1.984 6.752 0.416 1.952 1.216 3.84 1.792 4.16 0.512 0.448 0.928 1.856 0.928 3.264s0.608 4.256 1.472 6.24c2.208 5.696 4.704 14.432 9.376 34.56 3.232 13.216 6.912 35.072 9.472 56.512 2.208 18.272 2.208 86.016 0 106.048-2.112 18.784-6.336 43.264-9.472 54.784-0.704 3.072-1.472 6.56-1.472 7.872 0 5.12-2.208 7.328-3.936 3.84l-0.032-0.064zM61.438 479.76c-0.192-0.768-1.024-5.12-1.792-9.632-1.792-11.36-1.792-98.912 0.096-114.784 1.696-15.296 6.336-41.024 9.056-50.752 0.832-2.88 1.472-6.464 1.472-7.872 0-1.536 0.704-4.512 1.6-6.656 0.832-2.112 1.6-4.704 1.6-5.696s0.704-3.168 1.6-4.928c0.832-1.632 1.6-4.352 1.6-5.984s0.512-3.488 1.12-4.16c0.608-0.672 1.6-3.168 2.112-5.472 0.832-4.256 6.144-20.544 8.032-24.832 0.512-1.184 2.112-5.024 3.328-8.288 4.416-11.36 14.4-33.344 20.224-44.288 1.216-2.4 3.84-7.328 5.728-10.912 1.984-3.584 4.928-8.64 6.464-11.264 1.696-2.624 3.008-4.928 3.008-5.12 0-0.32 2.112-3.744 4.704-7.776 2.624-3.936 4.704-7.424 4.704-7.616 0-0.768 17.984-25.696 22.72-31.584 9.376-11.68 15.68-18.784 32.064-35.936 9.824-10.304 20.128-20.672 22.944-23.040 6.56-5.472 18.592-15.872 23.616-20.224 2.112-1.728 4.192-3.264 4.512-3.264 0.416 0 4.416-2.88 8.768-6.464 13.568-10.688 36.416-24.928 57.6-35.744 25.248-12.896 26.624-13.568 27.84-13.568 0.608 0 2.496-0.672 4.192-1.536 7.008-3.744 18.496-8.288 20.8-8.288 3.936 0 3.008 1.632-3.424 6.144-9.152 6.24-18.88 13.664-23.712 17.92-2.304 2.208-5.952 5.216-8.128 6.912-5.12 3.936-30.976 30.816-40.608 42.304-10.336 12.224-26.944 35.328-36.416 50.848-10.848 17.6-29.12 52.992-36.096 69.952-0.704 1.856-2.816 6.56-4.512 10.688-1.792 4.032-3.232 8-3.232 8.768s-0.608 2.304-1.472 3.488c-0.704 1.184-1.696 3.392-1.984 4.928s-1.6 5.472-2.816 8.768c-1.216 3.264-2.624 7.52-3.136 9.28-0.416 1.856-1.216 4.512-1.888 5.984s-2.496 7.872-4.288 14.24c-1.792 6.336-3.936 13.664-4.704 16.384-0.832 2.72-2.912 11.84-4.8 20.224-1.792 8.384-3.744 17.504-4.416 20.224s-1.472 7.872-1.888 11.456c-0.416 3.584-1.024 7.328-1.472 8.192-0.928 2.4-3.84 27.328-4.8 40.544-1.12 16.384-1.792 17.728-12.96 26.688-14.496 11.68-50.592 50.080-62.016 65.792-8.768 12.128-22.112 32.448-22.112 33.536 0 0.864-7.52 13.76-7.936 13.76-0.32 0-0.704-0.672-0.928-1.344h0.032zM734.974 303.792c-2.624-1.184-6.336-3.072-8.352-3.936s-5.024-2.208-6.752-2.976c-21.504-9.632-62.816-23.712-81.408-27.84-2.304-0.448-8.64-1.952-14.080-3.264-5.44-1.184-12.864-2.72-16.384-3.168-3.52-0.576-6.912-1.344-7.52-1.632-0.608-0.448-4.512-1.184-8.64-1.728s-13.248-1.632-20.128-2.496c-6.912-0.96-17.216-2.208-22.944-2.88-13.152-1.536-94.72-1.632-106.848-0.096-4.928 0.672-15.008 1.856-22.528 2.88-7.424 0.96-16.576 2.112-20.32 2.624-3.744 0.448-8.64 1.344-10.944 1.952s-7.232 1.632-10.944 2.4c-8.128 1.44-23.616 5.024-30.784 7.104-2.816 0.768-8.032 2.208-11.456 3.168-9.376 2.72-17.312 5.12-21.408 6.656-11.456 4.352-15.776 5.376-16.576 4.032-0.416-0.768-0.192-5.696 0.512-10.912s2.112-15.616 2.912-23.2c0.928-7.52 2.4-17.728 3.232-22.624 0.832-5.024 2.304-13.312 3.232-18.592 3.52-20.896 6.912-37.056 12.544-59.584 4.928-19.648 10.56-39.68 12.544-44.384 0.832-1.952 1.472-4.16 1.472-4.928 0-1.728 13.056-38.048 16.288-45.152 1.344-3.072 2.496-5.888 2.496-6.24 0-0.768 15.872-34.656 17.728-37.952 0.512-0.864 3.936-7.104 7.84-13.888 10.24-18.272 25.024-40.256 30.88-45.92 3.648-3.392 20.896-7.328 44.224-10.176 4.032-0.448 13.152-1.728 20.32-2.88 18.368-2.88 58.816-2.88 77.216 0 7.232 1.088 16.384 2.4 20.32 2.88 15.456 1.856 32.064 4.928 44.032 8.288 2.912 0.864 6.464 1.536 7.84 1.536 7.104 0.192 15.008 9.408 32.864 38.24 3.136 5.12 6.144 10.304 6.656 11.456s2.4 4.704 4.032 7.616c5.824 10.304 16.704 34.208 23.488 51.36 2.112 5.472 4.288 10.688 4.8 11.84 1.6 2.976 11.872 35.072 16.192 49.984 0.928 3.264 2.304 8 3.008 10.4 3.52 11.84 12.096 48.736 15.552 67.776 6.912 37.472 15.264 102.752 13.568 105.568-0.832 1.536-2.624 1.184-7.744-1.44l-0.032 0.128z" />
<glyph unicode="&#xe934;" glyph-name="spinner" d="M512 656.896c-32.96 0-59.712 26.752-59.712 59.712v179.072c0 32.96 26.752 59.712 59.712 59.712s59.712-26.752 59.712-59.712v-179.072c0-32.96-26.752-59.712-59.712-59.712zM512-36.928c-20.608 0-37.312 16.704-37.312 37.312v179.072c0 20.608 16.704 37.312 37.312 37.312s37.312-16.704 37.312-37.312v-179.072c0-20.608-16.704-37.312-37.312-37.312zM377.728 624.64c-19.328 0-38.144 10.048-48.512 27.968l-89.536 155.072c-15.424 26.752-6.272 60.992 20.48 76.416s60.992 6.272 76.416-20.48l89.536-155.072c15.424-26.752 6.272-60.992-20.48-76.416-8.832-5.056-18.432-7.488-27.904-7.488zM735.872 26.752c-11.584 0-22.912 6.016-29.12 16.768l-89.536 155.072c-9.28 16.064-3.776 36.608 12.288 45.888s36.608 3.776 45.888-12.288l89.536-155.072c9.28-16.064 3.776-36.608-12.288-45.888-5.312-3.072-11.072-4.48-16.768-4.48zM279.36 530.048c-8.832 0-17.856 2.24-26.048 6.976l-155.072 89.536c-24.96 14.4-33.536 46.336-19.136 71.36s46.336 33.536 71.36 19.136l155.072-89.536c24.96-14.4 33.536-46.336 19.136-71.36-9.664-16.768-27.2-26.112-45.248-26.112zM899.648 194.304c-5.056 0-10.176 1.28-14.912 4.032l-155.072 89.536c-14.272 8.256-19.136 26.496-10.944 40.768s26.496 19.136 40.768 10.944l155.072-89.536c14.272-8.256 19.136-26.496 10.944-40.768-5.504-9.6-15.552-14.912-25.856-14.912zM243.392 399.488h-179.072c-26.752 0-48.512 21.696-48.512 48.512s21.696 48.512 48.512 48.512h179.072c26.816 0 48.512-21.696 48.512-48.512s-21.696-48.512-48.512-48.512zM959.68 418.176c0 0 0 0 0 0h-179.072c-16.512 0-29.824 13.376-29.824 29.824s13.376 29.824 29.824 29.824c0 0 0 0 0 0h179.072c16.512 0 29.824-13.376 29.824-29.824s-13.376-29.824-29.824-29.824zM124.352 179.392c-15.488 0-30.528 8-38.784 22.4-12.352 21.44-5.056 48.768 16.384 61.12l155.072 89.536c21.44 12.352 48.768 5.056 61.12-16.384s5.056-48.768-16.384-61.12l-155.072-89.536c-7.040-4.096-14.72-6.016-22.336-6.016zM744.64 552.448c-10.304 0-20.352 5.376-25.856 14.912-8.256 14.272-3.328 32.512 10.944 40.768l155.072 89.536c14.272 8.256 32.512 3.328 40.768-10.944s3.328-32.512-10.944-40.768l-155.072-89.536c-4.672-2.688-9.856-4.032-14.912-4.032zM288.128 19.264c-6.976 0-14.016 1.792-20.48 5.504-19.648 11.328-26.368 36.416-15.040 56.064l89.536 155.072c11.328 19.648 36.416 26.368 56.064 15.040s26.368-36.416 15.040-56.064l-89.536-155.072c-7.616-13.184-21.376-20.544-35.584-20.544zM646.272 650.752c-5.056 0-10.176 1.28-14.912 4.032-14.272 8.256-19.136 26.496-10.944 40.768l89.536 155.072c8.256 14.272 26.496 19.136 40.768 10.944s19.136-26.496 10.944-40.768l-89.536-155.072c-5.504-9.6-15.552-14.912-25.856-14.912z" />
<glyph unicode="&#xe935;" glyph-name="spinner-dots" d="M384 832c0 70.72 57.28 128 128 128s128-57.28 128-128c0-70.72-57.28-128-128-128s-128 57.28-128 128zM790.976 448c0 0 0 0 0 0 0 57.984 47.040 105.024 105.024 105.024s105.024-47.040 105.024-105.024c0 0 0 0 0 0 0-57.984-47.040-105.024-105.024-105.024s-105.024 47.040-105.024 105.024zM688.448 176.448c0 52.544 42.56 95.104 95.104 95.104s95.104-42.56 95.104-95.104c0-52.544-42.56-95.104-95.104-95.104s-95.104 42.56-95.104 95.104zM425.856 64c0 47.552 38.592 86.144 86.144 86.144s86.144-38.592 86.144-86.144c0-47.552-38.592-86.144-86.144-86.144s-86.144 38.592-86.144 86.144zM162.432 176.448c0 43.072 34.944 78.016 78.016 78.016s78.016-34.944 78.016-78.016c0-43.072-34.944-78.016-78.016-78.016s-78.016 34.944-78.016 78.016zM57.344 448c0 39.040 31.616 70.656 70.656 70.656s70.656-31.616 70.656-70.656c0-39.040-31.616-70.656-70.656-70.656s-70.656 31.616-70.656 70.656zM176.448 719.552c0 0 0 0 0 0 0 35.328 28.672 64 64 64s64-28.672 64-64c0 0 0 0 0 0 0-35.328-28.672-64-64-64s-64 28.672-64 64zM899.456 719.552c0-64-51.904-115.904-115.968-115.904s-115.968 51.904-115.968 115.904c0 64.064 51.904 115.904 115.968 115.904s115.968-51.904 115.968-115.904z" />
<glyph unicode="&#xe936;" glyph-name="three-bars" d="M116.128 791.808v-137.536h791.808v137.536h-791.808zM116.128 379.232h791.808v137.536h-791.808v-137.536zM116.128 104.192h791.808v137.536h-791.808v-137.536z" />
<glyph unicode="&#xe937;" glyph-name="torus" d="M476.228 716.638c-1.472-0.608-10.176-1.728-19.296-2.368-9.12-0.768-21.248-2.112-26.816-3.072s-15.776-2.72-22.528-3.84c-6.752-1.12-13.312-2.464-14.496-2.976-1.184-0.608-4.8-1.728-8.032-2.464-12.224-2.976-30.144-7.424-39.744-10.048-2.048-0.512-5.472-1.728-7.52-2.464-2.048-0.864-5.472-2.24-7.52-3.072s-6.656-2.624-10.176-3.744c-3.52-1.216-8.032-2.976-9.984-3.84-1.952-0.96-4.192-1.728-5.056-1.728-1.6 0-5.472-1.856-16.128-7.68-3.52-1.856-7.072-3.488-7.744-3.488s-2.56-0.768-4.288-1.728c-1.6-0.96-5.184-2.72-7.84-3.84-6.656-2.88-12.224-6.048-19.872-11.168-3.52-2.368-7.232-4.544-8.032-5.056-0.864-0.352-2.368-1.216-3.232-1.856s-2.368-1.472-3.232-1.856c-8.032-3.84-14.496-8.192-27.808-18.336-8.512-6.56-15.776-11.872-16.224-11.872-0.32 0-5.056-4.352-10.304-9.536-14.592-14.592-19.552-19.2-24.384-23.040-4.928-3.744-5.696-4.704-15.040-17.472-3.424-4.704-8.384-10.4-10.848-12.64-6.336-5.568-16.448-19.2-23.712-32.32-3.424-5.952-6.752-11.36-7.52-12.128-2.24-2.24-11.264-16.96-11.264-18.432 0-1.728-9.216-22.88-11.168-25.504-0.768-0.96-2.24-4.96-3.424-8.64-1.088-3.744-2.368-7.424-2.816-8.288-0.512-0.768-1.376-2.976-1.952-4.96-0.512-1.856-1.952-6.56-3.232-10.304-10.944-33.024-13.728-51.616-14.176-93.44-0.192-33.44 2.048-62.528 5.792-73.632 0.416-0.96 0.96-4.704 1.28-8.192 0.416-3.584 1.952-9.024 3.328-12.128 4.096-8.8 9.216-23.040 10.4-28.48 0.512-2.624 2.048-7.68 3.424-11.168 1.28-3.488 3.328-8.8 4.416-11.872s2.656-6.464 3.424-7.52c0.768-0.96 1.376-2.464 1.376-3.232s0.672-1.856 1.376-2.624c0.768-0.768 3.84-7.168 6.976-14.24 4.096-9.536 7.52-15.104 12.64-21.408 7.232-8.64 13.632-17.568 16.544-22.88 1.856-3.232 4.192-5.952 22.976-26.208 26.208-28.352 29.344-31.552 36.608-37.888 4.192-3.488 8.256-7.072 9.12-8.032 2.816-2.72 14.272-11.36 19.872-14.848 3.008-1.856 8.256-5.216 11.84-7.52s7.232-4.544 8.032-5.056c0.864-0.512 3.136-2.112 4.8-3.584 3.328-2.72 5.984-4.352 22.016-12.384 5.056-2.624 12.032-6.464 15.552-8.64s8.128-4.704 10.176-5.312c2.048-0.768 6.464-2.464 9.664-3.936s7.424-3.072 9.12-3.744c1.856-0.608 5.888-2.24 9.12-3.744 10.304-4.704 23.488-9.408 31.68-11.168 2.368-0.512 5.792-1.6 7.52-2.24 1.856-0.768 6.336-2.24 10.176-3.488 3.84-1.12 8.128-2.464 9.664-3.072 2.656-1.12 15.552-4.096 27.392-6.208 3.52-0.768 7.424-1.728 8.608-2.368s6.24-1.376 11.264-1.856c11.168-0.96 13.632-1.376 22.88-2.88 4-0.768 8.128-0.96 9.312-0.608s5.696-0.256 9.984-1.376c11.456-2.88 54.208-4.96 68.928-3.328 6.56 0.768 16.832 1.376 23.104 1.376s16.128 0.864 22.016 1.856c5.888 0.96 13.408 1.856 16.736 1.856s9.888 0.864 14.496 1.856c9.664 2.112 20.544 4.544 29.952 6.816 3.52 0.864 8.896 1.984 11.84 2.624 6.656 1.376 14.592 3.84 16.448 5.312 0.864 0.512 4.192 1.728 7.52 2.624 3.424 0.864 9.024 2.624 12.544 3.744s8.128 2.464 10.176 3.072c9.792 2.88 13.632 4.192 16.64 5.568 1.856 0.864 5.376 2.624 8.032 3.744 2.656 1.216 5.792 2.624 6.976 3.232 2.368 1.12 7.936 3.488 19.456 7.936 4.288 1.6 8.608 3.488 9.664 4.192 3.232 2.112 20.832 11.264 21.696 11.264 1.6 0 13.504 7.52 20.928 13.248 8.512 6.56 11.168 8.544 13.632 9.792 0.864 0.512 2.368 1.6 3.232 2.368 0.864 0.864 4.416 3.328 7.936 5.568 10.656 6.72 34.144 27.712 48.128 42.944 15.968 17.568 30.624 34.752 36.608 43.072 2.464 3.488 6.144 8.288 8.128 10.912 2.048 2.464 5.184 6.464 6.848 8.64 1.728 2.112 3.52 5.056 4 6.464 0.512 1.376 4.096 8.288 7.936 15.456 8.256 15.456 11.168 22.176 16.224 37.12 0.96 3.072 2.656 8.032 3.744 11.168s2.656 7.776 3.52 10.496c0.864 2.72 2.816 8.032 4.192 11.776 3.648 9.536 6.24 18.944 6.24 22.88 0 1.856 0.672 5.952 1.472 9.152 3.232 11.872 4 17.216 4.512 31.072 0.96 23.904 0.512 61.504-0.768 69.696-0.672 4.192-1.472 12.384-2.048 18.176-0.416 5.824-1.952 13.632-3.232 17.312-2.816 8.288-5.28 17.568-6.336 24.128-0.416 2.72-1.28 6.048-1.952 7.424s-7.328 16.832-14.688 34.304c-7.52 17.568-14.080 32.16-14.592 32.576-0.672 0.352-4.416 6.208-8.512 12.736-13.12 21.312-45.984 60.16-68.608 81.312-7.328 6.816-13.728 12.64-14.4 12.864-1.376 0.608-23.488 17.728-28.576 22.176-3.232 2.88-20.64 13.472-41.792 25.408-4.608 2.72-9.792 5.568-11.36 6.56-1.728 0.96-3.648 1.728-4.288 1.728s-4.416 1.728-8.256 3.84c-3.84 2.112-8.384 4.448-10.176 5.312-1.728 0.96-4.608 2.368-6.464 3.328-1.728 0.864-5.376 2.368-8.032 3.232-2.656 0.96-6.24 2.24-8.032 2.88-24.576 8.64-32.672 11.168-35.232 11.168-1.376 0-3.008 0.608-3.744 1.472-0.672 0.768-3.232 1.856-5.792 2.368s-7.744 1.856-11.584 2.88c-3.84 0.96-10.304 2.624-14.496 3.744-4.096 0.96-9.664 2.464-12.352 3.072-2.656 0.768-8.704 1.856-13.408 2.624s-13.408 2.112-19.296 3.232c-5.888 0.96-18.496 2.368-27.904 2.976-9.472 0.768-19.552 1.728-22.336 2.464-6.336 1.472-64.608 1.472-68.416 0l0.224-0.128zM615.172 693.118c-0.672-0.768-2.816-0.768-5.792-0.096l-4.8 1.12 5.888 0.096c3.744 0.096 5.472-0.256 4.704-1.12zM630.212 690.046c1.6-0.96 4.288-1.856 5.792-1.856s5.376-0.864 8.704-1.984c17.824-5.824 27.296-9.024 36.096-12.48 4.192-1.728 9.024-3.488 10.752-4.096 4.928-1.6 18.592-7.776 30.048-13.632 13.984-7.168 18.112-9.408 27.392-14.848 11.84-6.816 15.968-9.408 26.112-16.576 4-2.72 8.128-5.696 9.12-6.304 6.144-4.352 12.8-9.536 22.208-17.824 44.448-38.496 75.584-81.92 92.352-128.448 7.936-22.016 10.080-30.56 14.496-56.672 2.24-13.632 2.56-44.544 0.672-59.552-3.424-25.856-6.752-39.584-14.688-61.76-5.696-15.616-10.752-26.368-20.544-43.584-12.128-21.312-32.416-47.52-51.296-66.464-8.128-8.192-32.416-28.992-40.608-34.912-3.744-2.624-8.032-5.824-9.664-6.912-1.6-1.216-3.84-2.72-5.056-3.488s-3.84-2.464-5.888-3.936c-10.656-7.424-51.104-29.344-61.184-33.184-1.472-0.608-5.376-2.24-8.608-3.744-12.8-5.568-42.080-15.968-57.44-20.16-47.264-13.12-95.68-19.648-144.448-19.808-41.984 0-95.552 6.464-127.808 15.456-2.656 0.768-6.752 1.728-9.12 2.24s-6.464 1.472-9.12 2.368c-2.656 0.864-7.744 2.368-11.264 3.488-9.024 2.624-14.176 4.448-28.992 10.304-7.072 2.88-14.496 5.568-16.544 6.208-1.952 0.608-4.096 1.6-4.704 2.368s-1.856 1.376-2.656 1.376c-0.864 0-3.008 0.768-4.8 1.728-1.952 0.864-5.568 2.624-8.256 3.84-10.080 4.704-44.448 24.512-54.976 31.68-67.84 46.656-113.504 106.176-132.8 173.152-5.984 21.056-8.608 37.024-9.472 58.048-0.512 16.224-0.416 18.688 0.96 18.688 1.088 0 2.464-2.88 4-8.192 4.704-16.576 14.080-36 26.528-54.944 27.904-42.56 70.56-78.944 126.048-107.328 2.048-1.12 4.704-2.464 5.792-3.232 1.184-0.608 3.328-1.6 4.8-2.24 2.656-0.96 4.704-1.856 17.312-7.328 8.512-3.744 26.208-10.4 34.368-12.992 3.84-1.12 8.128-2.624 9.664-3.232 5.472-1.984 29.856-8.384 44.544-11.52 83.296-17.728 166.656-16.448 250.72 3.84 7.936 1.856 12.128 3.072 25.76 7.168 19.968 6.208 36.192 12.128 54.784 20.416 3.232 1.472 7.232 3.072 8.704 3.744 1.472 0.512 3.648 1.472 4.8 2.24 1.088 0.768 4.928 2.88 8.512 4.544 51.296 26.112 95.904 64.192 122.304 104.448 7.424 11.264 21.056 35.904 21.056 38.080 0 0.352 1.184 3.584 2.56 7.072 6.848 16.704 12.032 41.728 13.216 63.84 1.184 23.904-5.984 58.784-17.728 85.248-19.104 43.328-54.528 83.392-101.696 115.104-5.28 3.584-10.4 6.912-11.264 7.52-7.616 5.216-39.52 22.272-46.176 24.736-1.472 0.608-5.376 2.24-8.608 3.744-10.304 4.544-24.064 10.048-27.904 11.168-2.048 0.512-5.376 1.6-7.232 2.368-1.952 0.768-5.184 1.984-6.976 2.72-1.952 0.768-4.704 1.6-6.24 1.984-6.464 1.376-7.52 1.728-7.52 2.88 0 1.856 7.744 1.472 11.168-0.608l-0.064 0.032zM553.412 389.214c1.952-0.96 5.792-1.728 8.608-1.728 2.656 0 6.848-0.608 9.216-1.376s6.464-1.728 9.12-2.368c2.656-0.512 6.336-1.472 8.032-2.24 9.12-3.584 14.272-5.216 16.736-5.216 1.6 0 3.424-0.864 4.192-1.856s2.144-1.856 3.136-1.856c0.96 0 2.656-0.864 3.744-1.856 1.184-0.96 3.136-1.856 4.416-1.856s3.232-0.864 4.416-1.856c1.088-0.96 2.656-1.856 3.52-1.856 0.768 0 3.232-1.6 5.472-3.744 2.24-1.984 4.288-3.744 4.608-3.744 2.048 0 12.032-9.152 18.112-16.576 6.56-7.936 7.328-9.28 7.328-13.888 0-4.192-0.768-6.048-4.512-10.912-3.84-5.216-17.216-18.432-20.64-20.672-5.184-3.328-27.488-15.36-30.048-16.064-1.856-0.512-5.472-1.6-8.128-2.464-2.656-0.768-6.464-2.24-8.384-3.072-1.952-0.96-4.8-1.728-6.464-1.728-1.6-0.096-4.096-0.864-5.568-1.856s-4.096-1.728-5.696-1.856c-1.6 0-4.288-0.768-5.888-1.728-1.728-0.96-7.936-1.856-14.784-2.24-6.56-0.352-12.896-1.376-14.176-2.112-1.728-0.96-10.080-1.216-29.44-0.864-27.040 0.512-44.64 2.112-50.784 4.704-1.728 0.768-6.144 1.728-9.664 2.24s-7.84 1.472-9.472 2.24c-1.728 0.864-4 1.472-5.28 1.472-1.184 0-5.28 1.728-9.12 3.744-3.744 2.112-7.424 3.744-8.032 3.744-2.368 0-12.448 4.352-19.2 8.192-14.496 8.288-24.384 16.224-29.632 23.648-2.24 3.072-5.056 6.816-6.144 8.192-1.376 1.728-2.048 4.352-2.048 7.936 0 5.056 0.416 6.048 7.936 14.752 7.936 9.28 15.552 15.104 29.44 22.784 4.192 2.24 8.8 4.8 10.4 5.824 1.472 0.864 3.648 1.6 4.608 1.6s3.136 0.768 4.608 1.728c5.792 3.488 11.072 5.696 13.216 5.696 1.28 0 4.704 0.864 7.84 1.984 10.080 3.744 11.936 4.096 20.544 4.96 4.704 0.512 9.568 1.472 10.752 2.24 5.472 3.488 75.936 3.488 83.104 0v-0.096z" />
<glyph unicode="&#xe938;" glyph-name="trash-bin" d="M410.976 891.552c-3.776-0.704-7.776-1.728-8.96-2.368-1.184-0.512-4-1.856-6.336-2.976-12.96-5.824-23.904-18.368-27.488-31.392-1.984-7.584-2.208-55.808-0.192-57.024 0.704-0.512 10.432-0.832 21.408-0.608l20.032 0.192 0.512 19.904c0.608 22.464 1.376 25.248 8.128 30.464 8.448 6.464 7.36 6.336 94.208 6.336 69.792 0 79.456-0.192 83.904-1.632 6.208-2.048 11.168-5.728 14.24-10.56 2.208-3.392 2.4-5.024 2.752-23.104 0.192-11.264 0.832-19.904 1.472-20.64 0.832-1.024 6.336-1.344 20.992-1.344 19.392 0 19.904 0.096 21.088 2.24 0.96 1.632 1.088 9.312 0.704 27.808-0.608 27.072-0.32 25.536-6.208 38.048-1.184 2.368-5.28 7.36-9.056 11.264-8.352 8.096-18.528 13.312-30.368 15.36-10.24 1.856-190.656 1.856-200.8 0zM170.432 753.248c-4.192-0.608-12.224-8-13.472-12.384-1.28-4.608-1.376-75.68-0.096-81.088 1.088-4.512 5.696-9.728 10.848-12.288 3.776-1.952 12.128-1.952 344.64-1.952h340.736l5.28 3.392c3.584 2.24 5.984 4.8 7.584 7.872 2.208 4.512 2.304 5.632 2.304 42.56 0.096 35.904 0 38.24-1.984 42.656-1.28 2.656-4 6.144-6.56 8.096l-4.416 3.392-341.056 0.096c-187.488 0.096-342.208-0.096-343.808-0.32zM185.664 579.936c-0.96-0.928-1.28-62.88-1.28-272.384 0-149.056 0.32-273.312 0.704-276.064 0.512-4.096 1.472-5.728 5.568-9.632 3.264-3.168 6.464-5.024 9.792-5.952 3.904-0.928 69.568-1.216 311.232-1.216 338.336 0 313.344-0.512 321.12 6.464 7.68 6.848 7.072-18.592 7.072 284.736 0 210.848-0.32 273.088-1.28 274.016-1.792 1.728-651.264 1.728-653.056 0zM428.704 469.504c0.96-0.928 1.28-42.752 1.28-181.856 0-99.392-0.32-181.344-0.608-182.272-0.512-1.44-5.888-1.632-49.408-1.632s-48.896 0.192-49.408 1.632c-0.32 0.928-0.608 83.2-0.608 182.88 0 144.064 0.32 181.344 1.376 181.76 0.608 0.32 22.688 0.608 48.704 0.608 35.648 0.096 47.872-0.192 48.8-1.12zM690.784 287.232v-182.976l-52.576-0.32c-28.992-0.096-53.152 0.192-53.568 0.608-0.96 0.928-1.184 363.872-0.192 365.312 0.32 0.512 22.688 0.832 53.44 0.704l52.896-0.32v-182.976z" />
<glyph unicode="&#xe939;" glyph-name="upload" d="M811.008 525.472c-28.256 131.68-149.504 232.352-299.008 232.352-117.184 0-218.208-61.952-266.688-154.88-125.28-15.52-218.208-112.288-218.208-232.352 0-127.808 109.12-232.352 242.432-232.352h525.312c113.152 0 202.048 85.184 202.048 193.632 0 100.672-84.832 185.856-185.856 193.632zM592.8 409.28v-154.88h-161.632v154.88h-121.248l202.048 193.632 202.048-193.632h-121.248z" />
<glyph unicode="&#xe93a;" glyph-name="vertex" d="M590.438 609.568c-10.496-1.6-23.488-5.568-32.704-10.176-21.504-10.688-42.752-32.608-53.344-54.624-15.52-32.704-12.8-76.352 6.816-106.592 6.4-9.824 6.496-10.176 4.288-12.288-9.312-9.024-44.128-42.048-58.88-55.872-10.080-9.408-22.848-21.504-28.32-26.72-5.44-5.312-14.144-13.632-19.392-18.432-5.12-4.928-18.848-17.824-30.4-28.832-11.52-10.912-28.928-27.328-38.752-36.608-9.728-9.216-22.336-20.992-27.808-26.208-9.216-8.8-18.528-17.728-38.656-36.704-4.288-4-9.024-8.512-10.592-9.984-1.472-1.472-10.912-10.4-20.832-19.904s-19.008-17.728-20.032-18.24c-1.472-0.608-3.008-0.096-6.304 2.496-11.104 8.8-22.848 14.688-36.704 18.336-17.6 4.608-43.424 3.392-59.744-2.912-20.32-8-38.752-23.040-49.984-41.12-11.712-18.624-16.992-44.864-13.408-66.048 2.72-16.704 8.288-31.232 15.936-41.824 15.616-21.504 33.12-33.632 59.552-41.216 8.704-2.496 30.112-2.912 40.448-0.928 25.792 5.12 47.264 18.528 62.144 38.912 7.232 9.824 11.2 17.824 15.424 30.4 3.392 10.304 3.488 10.912 3.488 28.32-0.096 19.104-0.928 24-7.104 39.424-1.472 3.776-2.72 7.424-2.72 8.192s7.872 9.024 17.504 18.24c9.728 9.312 25.344 24.512 34.912 33.856 9.536 9.216 24.832 24.128 34.048 32.928 9.216 8.896 25.44 24.736 36.16 35.136s26.208 25.504 34.624 33.536c26.624 25.792 84.896 82.272 100.096 97.088 28.32 27.456 36.256 35.008 37.632 35.328 0.608 0.096 5.44-2.304 10.592-5.312 12.384-7.424 33.44-15.424 40.64-15.424 1.6 0 3.136-0.704 3.68-1.792s0.512-14.24 0-29.632c-0.416-15.296-1.6-50.624-2.4-78.656s-2.112-68.256-2.72-89.664c-0.704-21.312-1.6-39.52-2.112-40.352-0.416-0.928-4.192-2.496-8.512-3.584-9.536-2.4-25.536-9.984-33.216-15.616-20.64-15.104-34.144-34.72-41.728-59.968-1.472-5.024-1.888-10.080-1.888-25.696 0-19.008 0.096-19.616 3.392-29.536 5.888-17.728 12.992-30.016 24.416-42.048 11.328-12.192 28.416-23.040 42.848-27.552 8.096-2.496 26.304-5.696 33.024-5.696 7.104 0 25.696 3.136 33.632 5.792 21.312 6.72 44.032 25.024 55.744 44.864 11.328 19.008 15.008 32.512 15.008 54.336 0 14.784-0.704 19.904-4.928 32.928-10.176 31.744-38.24 58.528-71.072 67.744-4.608 1.28-9.024 2.912-9.728 3.584-1.28 1.184-1.28 21.184-0.512 120.672l0.832 119.392 4.704 0.704c9.632 1.376 26.72 7.424 34.816 12.384 1.888 1.184 4.192 2.4 5.024 2.816 0.832 0.32 3.008 1.792 4.8 3.136s3.904 2.4 4.704 2.4c0.832 0 10.304-9.728 20.832-21.696 10.688-11.936 22.016-24.64 25.248-28.096s15.712-17.408 27.744-30.912c11.936-13.504 23.232-26.304 25.152-28.32 7.424-8.288 25.024-28 28.096-31.424 1.792-2.112 7.52-8.384 12.704-14.144 5.216-5.792 10.496-11.616 11.84-13.12 2.72-3.008 2.912-5.44 0.704-7.328-0.832-0.704-1.6-2.112-1.6-3.008s-0.416-2.208-0.928-2.72c-2.496-2.72-5.312-17.312-5.312-27.904 0-20.416 6.592-37.12 20.64-51.904 5.024-5.44 15.936-13.408 21.824-16.032 11.104-4.928 15.52-5.792 31.424-5.792 13.408 0 16.8 0.32 22.848 2.304 19.52 6.304 36.544 21.408 45.248 40.032 4.928 10.592 6.208 16.896 6.080 31.936-0.096 12.992-0.416 15.52-2.816 22.528-6.912 19.808-21.056 35.648-39.424 44.224-14.016 6.72-33.12 8.896-46.528 5.44-8.288-2.112-18.336-5.792-19.104-6.816-1.696-2.72-5.696 0.32-20.544 15.52-19.392 19.712-22.944 23.488-39.104 40.256-6.912 7.232-25.024 26.016-40.352 41.824-15.296 15.712-28.224 29.12-28.832 29.792-0.512 0.608-8.512 8.8-17.504 18.112-9.12 9.312-16.544 17.728-16.544 18.528s1.696 4 3.776 7.104c7.328 11.104 12.608 23.712 16.224 38.912 2.624 10.816 2.72 35.328 0.32 46.24-2.4 10.496-8.288 25.6-13.824 35.008-5.44 9.312-24.64 29.536-33.952 35.936-23.488 16.032-51.872 22.432-80.8 18.24l0.032 0.096z" />
<glyph unicode="&#xe93b;" glyph-name="wireframe" d="M480 896c-265.088 0-480-214.912-480-480s214.912-480 480-480c265.088 0 480 214.912 480 480s-214.912 480-480 480zM751.584 256c8.576 40.448 13.984 83.392 15.744 128h127.456c-3.328-44.192-13.632-87.104-30.688-128h-112.512zM208.416 576c-8.576-40.448-13.984-83.392-15.744-128h-127.456c3.328 44.192 13.632 87.104 30.688 128h112.512zM686.048 576c9.6-40.96 15.392-83.84 17.28-128h-191.328v128h174.048zM512 640v187.328c14.592-4.256 29.056-11.36 43.232-21.376 26.592-18.752 52-47.616 73.536-83.488 14.88-24.8 27.744-52.416 38.496-82.496h-155.264zM331.232 722.496c21.536 35.872 46.944 64.736 73.536 83.488 14.176 10.016 28.64 17.12 43.232 21.376v-187.328h-155.264c10.752 30.080 23.616 57.696 38.496 82.496zM448 576v-128h-191.328c1.888 44.16 7.68 87.040 17.28 128h174.048zM95.904 256c-17.056 40.896-27.328 83.808-30.688 128h127.456c1.76-44.608 7.168-87.552 15.744-128h-112.512zM256.672 384h191.328v-128h-174.048c-9.6 40.96-15.392 83.84-17.28 128zM448 192v-187.328c-14.592 4.256-29.056 11.36-43.232 21.376-26.592 18.752-52 47.616-73.536 83.488-14.88 24.8-27.744 52.416-38.496 82.496h155.264zM628.768 109.504c-21.536-35.872-46.944-64.736-73.536-83.488-14.176-9.984-28.64-17.12-43.232-21.376v187.328h155.264c-10.752-30.080-23.616-57.664-38.496-82.496zM512 256v128h191.328c-1.888-44.16-7.68-87.040-17.28-128h-174.048zM767.36 448c-1.76 44.608-7.168 87.552-15.744 128h112.512c17.056-40.896 27.36-83.808 30.688-128h-127.456zM830.656 640h-95.904c-18.624 58.752-44.384 110.304-75.328 151.424 42.528-20.352 81.056-47.616 114.72-81.28 21.472-21.472 40.352-44.928 56.512-70.144zM185.856 710.144c33.664 33.664 72.192 60.928 114.72 81.28-30.944-41.12-56.672-92.672-75.328-151.424h-95.904c16.128 25.216 35.008 48.672 56.512 70.144zM129.344 192h95.904c18.656-58.752 44.384-110.304 75.328-151.424-42.528 20.352-81.056 47.616-114.72 81.28-21.472 21.472-40.352 44.928-56.512 70.144zM774.144 121.856c-33.664-33.664-72.192-60.928-114.72-81.28 30.944 41.12 56.672 92.672 75.328 151.424h95.904c-16.128-25.216-35.008-48.672-56.512-70.144z" />
<glyph unicode="&#xe93c;" glyph-name="xy-system" d="M355.429 844.88c-12.544 0.672-23.712-15.616-11.872-27.136l26.976-26.88v-24.736c-0.096-8.64 6.816-15.776 15.52-15.872s15.808 6.816 15.968 15.456c0 0.16 0 0.32 0 0.448v24.672l26.976 26.88c15.168 14.752-7.424 37.28-22.208 22.112l-20.48-20.384-20.48 20.384c-3.232 3.328-6.848 4.8-10.4 5.024v0 0.032zM511.845 844.432c-4.096-0.064-8-1.696-10.912-4.544l-31.424-31.328c-6.208-6.048-6.336-15.968-0.256-22.176s16.032-6.304 22.208-0.256c0.096 0.096 0.192 0.16 0.256 0.256l4.608 4.608v-384.96h-424.64c-21.248 0.32-21.248-31.648 0-31.328h424.64v-422.816c-0.32-21.184 31.744-21.184 31.424 0v422.816h386.656l-4.608-4.544c-15.2-14.752 7.424-37.28 22.208-22.176l29.792 29.696c6.976 5.12 8.448 14.944 3.264 21.92-0.512 0.672-1.088 1.28-1.632 1.888l-31.424 31.328c-2.976 3.008-7.008 4.768-11.264 4.768-8.704 0-15.712-7.008-15.712-15.68 0-4.256 1.728-8.288 4.768-11.2l4.608-4.608h-103.584v15.68c0.16 8.8-7.104 16.032-15.968 15.872-8.704-0.16-15.616-7.232-15.52-15.872v-15.68h-62.912v15.68c0.16 8.8-7.104 16.032-15.968 15.872-8.704-0.16-15.616-7.232-15.52-15.872v-15.68h-62.912v15.68c0.16 8.8-7.104 16.032-15.968 15.872-8.704-0.16-15.616-7.232-15.52-15.872v-15.68h-62.912v62.624h15.712c21.248-0.32 21.248 31.648 0 31.328h-15.712v62.624h15.712c21.248-0.32 21.248 31.648 0 31.328h-15.712v62.624h15.712c21.248-0.32 21.248 31.648 0 31.328h-15.712v103.104l4.608-4.608c6.080-6.208 16.032-6.304 22.208-0.256s6.336 15.968 0.256 22.176c-0.096 0.096-0.16 0.192-0.256 0.256l-31.424 31.328c-3.008 2.976-7.104 4.672-11.36 4.544v0l0.192-0.064zM386.085 312.208c-15.040 0-27.584-9.152-35.328-20.736s-11.872-26.112-11.872-41.888 4.096-30.368 11.872-41.888c7.744-11.584 20.288-20.736 35.328-20.736s27.584 9.152 35.328 20.736c7.744 11.584 11.872 26.112 11.872 41.888s-4.096 30.368-11.872 41.888c-7.744 11.584-20.288 20.736-35.328 20.736zM889.381 312.208c-8.704 0-15.712-7.008-15.712-15.68 0-4.256 1.728-8.288 4.768-11.2l20.32-20.224-20.32-20.224c-6.208-6.048-6.336-15.968-0.256-22.176s16.032-6.304 22.208-0.256c0.096 0.096 0.16 0.16 0.256 0.256l20.32 20.224 20.32-20.224c6.080-6.208 16.032-6.304 22.208-0.256s6.336 15.968 0.256 22.176c-0.096 0.096-0.16 0.16-0.256 0.256l-20.32 20.224 20.32 20.224c6.24 6.048 6.336 15.936 0.32 22.176-3.072 3.168-7.328 4.864-11.712 4.768-4.096-0.096-7.936-1.856-10.816-4.704l-20.32-20.224-20.32 20.224c-2.976 3.008-7.008 4.768-11.264 4.768v0 0-0.128zM386.085 280.88c2.304 0 5.536-1.344 9.152-6.752s6.56-14.4 6.56-24.512-2.912-19.104-6.56-24.512c-3.648-5.44-6.848-6.816-9.152-6.816s-5.536 1.344-9.152 6.816c-3.648 5.44-6.56 14.4-6.56 24.512s2.912 19.104 6.56 24.512c3.648 5.44 6.848 6.752 9.152 6.752z" />
<glyph unicode="&#xe93d;" glyph-name="xyz-system" d="M806.568 88.96l-279.36 219.712v318.72c0 14.496-10.24 26.272-22.848 26.272s-22.848-11.712-22.848-26.272v-319.136l-264.608-219.712c-10.24-8.512-12.544-24.896-5.184-36.672s21.664-14.4 31.904-5.888l261.056 216.736 276.064-217.088c3.936-3.136 8.448-4.608 12.896-4.608 7.264 0 14.432 4 18.848 11.424 7.104 11.936 4.448 28.256-5.984 36.448l0.064 0.064zM481.512 739.040v-41.632c0-14.496 10.24-26.272 22.848-26.272s22.848 11.712 22.848 26.272v41.632l39.008 44.8c8.896 10.24 8.896 26.88 0 37.12s-23.392 10.24-32.32 0l-29.536-33.952-29.536 33.952c-8.896 10.24-23.392 10.24-32.32 0s-8.896-26.88 0-37.12l39.008-44.8zM932.52 14.784l29.536 33.952c8.896 10.24 8.896 26.88 0 37.12s-23.392 10.24-32.32 0l-29.536-33.952-29.536 33.952c-8.896 10.24-23.392 10.24-32.32 0s-8.896-26.88 0-37.12l29.536-33.952-29.536-33.952c-8.896-10.24-8.896-26.88 0-37.12 4.448-5.12 10.304-7.68 16.192-7.68s11.68 2.56 16.192 7.68l29.536 33.952 29.536-33.952c4.448-5.12 10.304-7.68 16.192-7.68s11.68 2.56 16.192 7.68c8.896 10.24 8.896 26.88 0 37.12l-29.536 33.952h-0.128zM190.472 57.312c0.064 0.16 0.064 0.256 0.096 0.416 1.024 2.976 1.632 6.208 1.632 9.568s-0.608 6.592-1.632 9.568c-0.064 0.16-0.064 0.256-0.096 0.416-2.304 6.464-6.816 11.616-12.448 14.272-0.096 0.064-0.192 0.064-0.352 0.096-2.624 1.184-5.376 1.888-8.352 1.888h-91.328c-12.608 0-22.848-11.712-22.848-26.272s10.24-26.272 22.848-26.272h36.256l-52.384-60.16c-2.112-2.464-3.84-5.376-4.96-8.608-0.064-0.16-0.064-0.256-0.096-0.416-1.024-2.976-1.632-6.208-1.632-9.568s0.608-6.592 1.632-9.568c0.064-0.16 0.064-0.256 0.096-0.416 2.304-6.464 6.816-11.616 12.448-14.272 0.096-0.064 0.192-0.064 0.352-0.096 2.624-1.184 5.376-1.888 8.352-1.888h91.328c12.608 0 22.848 11.712 22.848 26.272s-10.24 26.272-22.848 26.272h-36.256l52.32 60.16c2.144 2.464 3.84 5.376 4.96 8.608h0.064z" />
</font>
</defs>
</svg>
